<?xml version="1.0" encoding="UTF-8"?>
<!-- Generator: visioncortex VTracer 0.6.12 -->
<svg version="1.1" xmlns="http://www.w3.org/2000/svg" width="2816" height="1536">
<path d="M0 0 C929.28 0 1858.56 0 2816 0 C2816 506.88 2816 1013.76 2816 1536 C1886.72 1536 957.44 1536 0 1536 C0 1029.12 0 522.24 0 0 Z " fill="#FEFEFE" transform="translate(0,0)"/>
<path d="M0 0 C23.43 0 46.86 0 71 0 C71 7.59 71 15.18 71 23 C78.59 23 86.18 23 94 23 C94 38.84 94 54.68 94 71 C101.59 71 109.18 71 117 71 C117 78.59 117 86.18 117 94 C124.92 94 132.84 94 141 94 C141 101.59 141 109.18 141 117 C152.438 116.938 152.438 116.938 156.049 116.91 C156.514 116.909 156.514 116.909 158.871 116.902 C159.829 116.897 160.788 116.892 161.775 116.886 C164 117 164 117 165 118 C165.087 119.635 165.107 121.273 165.098 122.91 C165.095 123.801 165.093 124.692 165.09 125.61 C165.081 126.749 165.072 127.889 165.062 129.062 C165.042 132.672 165.021 136.281 165 140 C172.59 140 180.18 140 188 140 C188 132.41 188 124.82 188 117 C219.02 117 250.04 117 282 117 C282 132.51 282 148.02 282 164 C274.08 164 266.16 164 258 164 C258 179.51 258 195.02 258 211 C273.51 211 289.02 211 305 211 C305 203.08 305 195.16 305 187 C398.06 187 491.12 187 587 187 C587 194.92 587 202.84 587 211 C602.51 211 618.02 211 634 211 C634 195.49 634 179.98 634 164 C626.08 164 618.16 164 610 164 C610 148.49 610 132.98 610 117 C641.02 117 672.04 117 704 117 C704 124.92 704 132.84 704 141 C711.92 141 719.84 141 728 141 C728 133.08 728 125.16 728 117 C735.59 117 743.18 117 751 117 C751 109.41 751 101.82 751 94 C758.92 94 766.84 94 775 94 C775 86.41 775 78.82 775 71 C782.59 71 790.18 71 798 71 C798 55.16 798 39.32 798 23 C805.59 23 813.18 23 821 23 C821 15.41 821 7.82 821 0 C844.43 0 867.86 0 892 0 C892 7.59 892 15.18 892 23 C899.59 23 907.18 23 915 23 C915 46.43 915 69.86 915 94 C907.41 94 899.82 94 892 94 C892 101.92 892 109.84 892 118 C876.49 118 860.98 118 845 118 C845 125.59 845 133.18 845 141 C837.41 141 829.82 141 822 141 C822 148.59 822 156.18 822 164 C814.08 164 806.16 164 798 164 C798 171.92 798 179.84 798 188 C790.41 188 782.82 188 775 188 C775 195.59 775 203.18 775 211 C782.59 211 790.18 211 798 211 C798 218.59 798 226.18 798 234 C805.59 234 813.18 234 821 234 C821 257.43 821 280.86 821 305 C813.41 305 805.82 305 798 305 C798 312.59 798 320.18 798 328 C790.41 328 782.82 328 775 328 C775 320.41 775 312.82 775 305 C767.08 305 759.16 305 751 305 C751 297.41 751 289.82 751 282 C743.41 282 735.82 282 728 282 C728 390.24 728 498.48 728 610 C720.08 610 712.16 610 704 610 C704 633.1 704 656.2 704 680 C711.92 680 719.84 680 728 680 C728 687.59 728 695.18 728 703 C735.59 703 743.18 703 751 703 C751 710.59 751 718.18 751 726 C762.437 725.938 762.437 725.938 766.049 725.91 C766.514 725.909 766.514 725.909 768.871 725.902 C769.829 725.897 770.788 725.892 771.775 725.886 C774 726 774 726 775 727 C775.087 728.708 775.107 730.419 775.098 732.129 C775.095 733.06 775.093 733.992 775.09 734.951 C775.086 735.547 775.086 735.547 775.062 738.562 C775.042 742.337 775.021 746.111 775 750 C782.59 750 790.18 750 798 750 C798 757.92 798 765.84 798 774 C805.92 774 813.84 774 822 774 C822 781.59 822 789.18 822 797 C829.59 797 837.18 797 845 797 C845 812.51 845 828.02 845 844 C852.92 844 860.84 844 869 844 C869 867.1 869 890.2 869 914 C876.59 914 884.18 914 892 914 C892 929.51 892 945.02 892 961 C876.49 961 860.98 961 845 961 C845 953.41 845 945.82 845 938 C829.49 938 813.98 938 798 938 C798 930.41 798 922.82 798 915 C782.49 915 766.98 915 751 915 C751 907.08 751 899.16 751 891 C743.41 891 735.82 891 728 891 C728 883.41 728 875.82 728 868 C720.08 868 712.16 868 704 868 C704 860.08 704 852.16 704 844 C696.08 844 688.16 844 680 844 C680 836.41 680 828.82 680 821 C672.41 821 664.82 821 657 821 C657 813.08 657 805.16 657 797 C649.41 797 641.82 797 634 797 C634 789.41 634 781.82 634 774 C626.08 774 618.16 774 610 774 C610 781.59 610 789.18 610 797 C602.41 797 594.82 797 587 797 C587 804.92 587 812.84 587 821 C579.08 821 571.16 821 563 821 C563 828.59 563 836.18 563 844 C547.49 844 531.98 844 516 844 C516 851.92 516 859.84 516 868 C508.41 868 500.82 868 493 868 C493 875.59 493 883.18 493 891 C461.98 891 430.96 891 399 891 C399 883.41 399 875.82 399 868 C391.41 868 383.82 868 376 868 C376 860.08 376 852.16 376 844 C360.16 844 344.32 844 328 844 C328 836.41 328 828.82 328 821 C320.41 821 312.82 821 305 821 C305 813.08 305 805.16 305 797 C297.41 797 289.82 797 282 797 C282 789.41 282 781.82 282 774 C274.08 774 266.16 774 258 774 C258 781.59 258 789.18 258 797 C250.41 797 242.82 797 235 797 C235 804.92 235 812.84 235 821 C227.08 821 219.16 821 211 821 C211 828.59 211 836.18 211 844 C203.41 844 195.82 844 188 844 C188 851.92 188 859.84 188 868 C180.41 868 172.82 868 165 868 C165 875.59 165 883.18 165 891 C157.08 891 149.16 891 141 891 C141 898.92 141 906.84 141 915 C125.49 915 109.98 915 94 915 C94 922.59 94 930.18 94 938 C78.49 938 62.98 938 47 938 C47 945.92 47 953.84 47 962 C31.49 962 15.98 962 0 962 C0 946.16 0 930.32 0 914 C7.92 914 15.84 914 24 914 C24 890.9 24 867.8 24 844 C31.59 844 39.18 844 47 844 C47 828.49 47 812.98 47 797 C54.59 797 62.18 797 70 797 C70 789.41 70 781.82 70 774 C77.92 774 85.84 774 94 774 C94 766.08 94 758.16 94 750 C101.92 750 109.84 750 118 750 C118 742.41 118 734.82 118 727 C125.59 727 133.18 727 141 727 C141 719.08 141 711.16 141 703 C148.59 703 156.18 703 164 703 C164 695.41 164 687.82 164 680 C171.92 680 179.84 680 188 680 C188 656.9 188 633.8 188 610 C180.08 610 172.16 610 164 610 C164 501.76 164 393.52 164 282 C156.41 282 148.82 282 141 282 C141 289.59 141 297.18 141 305 C133.41 305 125.82 305 118 305 C118 312.59 118 320.18 118 328 C110.08 328 102.16 328 94 328 C94 320.41 94 312.82 94 305 C86.41 305 78.82 305 71 305 C71 281.57 71 258.14 71 234 C78.59 234 86.18 234 94 234 C94 226.41 94 218.82 94 211 C101.59 211 109.18 211 117 211 C117 203.41 117 195.82 117 188 C109.41 188 101.82 188 94 188 C94 180.08 94 172.16 94 164 C86.08 164 78.16 164 70 164 C70 156.41 70 148.82 70 141 C62.41 141 54.82 141 47 141 C47 133.41 47 125.82 47 118 C31.49 118 15.98 118 0 118 C0 110.08 0 102.16 0 94 C-7.92 94 -15.84 94 -24 94 C-24.023 84.89 -24.041 75.781 -24.052 66.671 C-24.057 62.442 -24.064 58.212 -24.075 53.983 C-24.086 49.904 -24.092 45.826 -24.095 41.748 C-24.097 40.188 -24.1 38.629 -24.106 37.069 C-24.113 34.893 -24.114 32.716 -24.114 30.539 C-24.116 29.298 -24.118 28.057 -24.12 26.778 C-24 24 -24 24 -23 23 C-21.292 22.913 -19.581 22.893 -17.871 22.902 C-16.94 22.905 -16.008 22.907 -15.049 22.91 C-14.453 22.914 -14.453 22.914 -11.438 22.938 C-7.663 22.958 -3.889 22.979 0 23 C0 15.41 0 7.82 0 0 Z " fill="#525151" transform="translate(962,281)"/>
<path d="M0 0 C54.45 0 108.9 0 165 0 C165 22.77 165 45.54 165 69 C114.714 70.143 114.714 70.143 94 70 C94 77.59 94 85.18 94 93 C125.02 93 156.04 93 188 93 C188 100.92 188 108.84 188 117 C203.18 117 218.36 117 234 117 C234.33 132.18 234.66 147.36 235 163 C242.59 163.33 250.18 163.66 258 164 C258 194.69 258 225.38 258 257 C250.41 257 242.82 257 235 257 C235 272.51 235 288.02 235 304 C219.49 304 203.98 304 188 304 C188 311.59 188 319.18 188 327 C156.98 327 125.96 327 94 327 C94 319.41 94 311.82 94 304 C78.49 304 62.98 304 47 304 C47 311.92 47 319.84 47 328 C62.51 328 78.02 328 94 328 C94 335.59 94 343.18 94 351 C117.43 351 140.86 351 165 351 C165 405.12 165 459.24 165 515 C141.57 515 118.14 515 94 515 C94 522.92 94 530.84 94 539 C125.02 539 156.04 539 188 539 C188 539.33 188 539.66 188 540 C172.49 540 156.98 540 141 540 C141 554.85 141 569.7 141 585 C133.41 585 125.82 585 118 585 C118 577.41 118 569.82 118 562 C102.49 562 86.98 562 71 562 C71 554.08 71 546.16 71 538 C63.08 538 55.16 538 47 538 C47 530.41 47 522.82 47 515 C39.41 515 31.82 515 24 515 C24 507.41 24 499.82 24 492 C16.08 492 8.16 492 0 492 C0 484.08 0 476.16 0 468 C-7.59 468 -15.18 468 -23 468 C-23 460.41 -23 452.82 -23 445 C-30.92 445 -38.84 445 -47 445 C-47 437.08 -47 429.16 -47 421 C-54.59 421 -62.18 421 -70 421 C-70 405.49 -70 389.98 -70 374 C-77.59 374 -85.18 374 -93 374 C-93 351.23 -93 328.46 -93 305 C-85.41 305 -77.82 305 -70 305 C-70 320.18 -70 335.36 -70 351 C-62.41 351 -54.82 351 -47 351 C-47 335.49 -47 319.98 -47 304 C-54.59 304 -62.18 304 -70 304 C-70 211.27 -70 118.54 -70 23 C-46.9 23 -23.8 23 0 23 C0 15.41 0 7.82 0 0 Z " fill="#525151" transform="translate(1267,563)"/>
<path d="M0 0 C23.43 0 46.86 0 71 0 C71 7.59 71 15.18 71 23 C78.59 23 86.18 23 94 23 C94 46.43 94 69.86 94 94 C86.41 94 78.82 94 71 94 C71 101.92 71 109.84 71 118 C55.49 118 39.98 118 24 118 C24 125.59 24 133.18 24 141 C16.41 141 8.82 141 1 141 C1 148.59 1 156.18 1 164 C-6.92 164 -14.84 164 -23 164 C-23 171.92 -23 179.84 -23 188 C-30.59 188 -38.18 188 -46 188 C-46 195.59 -46 203.18 -46 211 C-38.41 211 -30.82 211 -23 211 C-23 218.59 -23 226.18 -23 234 C-15.41 234 -7.82 234 0 234 C0 257.43 0 280.86 0 305 C-7.59 305 -15.18 305 -23 305 C-23 312.59 -23 320.18 -23 328 C-30.59 328 -38.18 328 -46 328 C-46 320.41 -46 312.82 -46 305 C-53.92 305 -61.84 305 -70 305 C-70 297.41 -70 289.82 -70 282 C-77.59 282 -85.18 282 -93 282 C-93 390.24 -93 498.48 -93 610 C-100.92 610 -108.84 610 -117 610 C-117 633.1 -117 656.2 -117 680 C-109.08 680 -101.16 680 -93 680 C-93 687.59 -93 695.18 -93 703 C-85.41 703 -77.82 703 -70 703 C-70 710.59 -70 718.18 -70 726 C-58.563 725.938 -58.563 725.938 -54.951 725.91 C-54.486 725.909 -54.486 725.909 -52.129 725.902 C-51.171 725.897 -50.212 725.892 -49.225 725.886 C-47 726 -47 726 -46 727 C-45.913 728.708 -45.893 730.419 -45.902 732.129 C-45.905 733.06 -45.907 733.992 -45.91 734.951 C-45.914 735.547 -45.914 735.547 -45.938 738.562 C-45.958 742.337 -45.979 746.111 -46 750 C-38.41 750 -30.82 750 -23 750 C-23 757.92 -23 765.84 -23 774 C-15.08 774 -7.16 774 1 774 C1 781.59 1 789.18 1 797 C8.59 797 16.18 797 24 797 C24 812.51 24 828.02 24 844 C31.92 844 39.84 844 48 844 C48 867.1 48 890.2 48 914 C55.59 914 63.18 914 71 914 C71 929.51 71 945.02 71 961 C55.49 961 39.98 961 24 961 C24 953.41 24 945.82 24 938 C8.49 938 -7.02 938 -23 938 C-23 930.41 -23 922.82 -23 915 C-38.51 915 -54.02 915 -70 915 C-70 907.08 -70 899.16 -70 891 C-77.59 891 -85.18 891 -93 891 C-93 883.41 -93 875.82 -93 868 C-100.92 868 -108.84 868 -117 868 C-117 860.08 -117 852.16 -117 844 C-124.92 844 -132.84 844 -141 844 C-141 836.41 -141 828.82 -141 821 C-148.59 821 -156.18 821 -164 821 C-164 813.08 -164 805.16 -164 797 C-171.59 797 -179.18 797 -187 797 C-187 789.41 -187 781.82 -187 774 C-194.92 774 -202.84 774 -211 774 C-211 781.59 -211 789.18 -211 797 C-218.59 797 -226.18 797 -234 797 C-234 804.92 -234 812.84 -234 821 C-241.92 821 -249.84 821 -258 821 C-258 828.59 -258 836.18 -258 844 C-273.51 844 -289.02 844 -305 844 C-305 836.08 -305 828.16 -305 820 C-297.08 820 -289.16 820 -281 820 C-281 812.08 -281 804.16 -281 796 C-273.41 796 -265.82 796 -258 796 C-258 788.41 -258 780.82 -258 773 C-254.411 772.979 -250.822 772.959 -247.125 772.938 C-245.995 772.928 -244.864 772.919 -243.7 772.91 C-242.811 772.907 -241.923 772.905 -241.008 772.902 C-240.097 772.897 -239.185 772.892 -238.247 772.886 C-236 773 -236 773 -234 774 C-234 766.08 -234 758.16 -234 750 C-226.41 750 -218.82 750 -211 750 C-211 742.41 -211 734.82 -211 727 C-203.08 727 -195.16 727 -187 727 C-187 719.08 -187 711.16 -187 703 C-179.41 703 -171.82 703 -164 703 C-164 687.49 -164 671.98 -164 656 C-156.41 656 -148.82 656 -141 656 C-141 632.9 -141 609.8 -141 586 C-148.59 586 -156.18 586 -164 586 C-164 493.27 -164 400.54 -164 305 C-156.08 305 -148.16 305 -140 305 C-140 397.73 -140 490.46 -140 586 C-132.41 586 -124.82 586 -117 586 C-117 477.76 -117 369.52 -117 258 C-140.1 258 -163.2 258 -187 258 C-187 250.41 -187 242.82 -187 235 C-202.84 235 -218.68 235 -235 235 C-235 227.08 -235 219.16 -235 211 C-327.73 211 -420.46 211 -516 211 C-516 203.08 -516 195.16 -516 187 C-422.94 187 -329.88 187 -234 187 C-234 194.92 -234 202.84 -234 211 C-218.49 211 -202.98 211 -187 211 C-187 195.49 -187 179.98 -187 164 C-194.92 164 -202.84 164 -211 164 C-211 148.49 -211 132.98 -211 117 C-179.98 117 -148.96 117 -117 117 C-117 124.92 -117 132.84 -117 141 C-109.08 141 -101.16 141 -93 141 C-93 133.08 -93 125.16 -93 117 C-85.41 117 -77.82 117 -70 117 C-70 109.41 -70 101.82 -70 94 C-62.08 94 -54.16 94 -46 94 C-46 86.41 -46 78.82 -46 71 C-38.41 71 -30.82 71 -23 71 C-23 55.16 -23 39.32 -23 23 C-15.41 23 -7.82 23 0 23 C0 15.41 0 7.82 0 0 Z " fill="#050404" transform="translate(1783,281)"/>
<path d="M0 0 C23.43 0 46.86 0 71 0 C71 7.59 71 15.18 71 23 C78.59 23 86.18 23 94 23 C94 38.84 94 54.68 94 71 C101.59 71 109.18 71 117 71 C117 78.59 117 86.18 117 94 C124.92 94 132.84 94 141 94 C141 101.59 141 109.18 141 117 C148.59 117 156.18 117 164 117 C164 124.92 164 132.84 164 141 C171.92 141 179.84 141 188 141 C188 148.59 188 156.18 188 164 C180.41 164 172.82 164 165 164 C165 171.92 165 179.84 165 188 C157.08 188 149.16 188 141 188 C141 195.92 141 203.84 141 212 C133.41 212 125.82 212 118 212 C118 219.59 118 227.18 118 235 C110.08 235 102.16 235 94 235 C94 250.18 94 265.36 94 281 C101.92 281 109.84 281 118 281 C118 273.41 118 265.82 118 258 C125.59 258 133.18 258 141 258 C141 250.08 141 242.16 141 234 C148.92 234 156.84 234 165 234 C165 226.74 165 219.48 165 212 C172.59 212 180.18 212 188 212 C188 219.59 188 227.18 188 235 C211.1 235 234.2 235 258 235 C258 242.59 258 250.18 258 258 C234.9 258 211.8 258 188 258 C188 366.24 188 474.48 188 586 C195.59 586 203.18 586 211 586 C211 493.27 211 400.54 211 305 C218.92 305 226.84 305 235 305 C235 397.73 235 490.46 235 586 C242.59 586 250.18 586 258 586 C258 601.51 258 617.02 258 633 C250.41 633 242.82 633 235 633 C235 617.82 235 602.64 235 587 C227.41 587 219.82 587 212 587 C212 609.77 212 632.54 212 656 C219.59 656 227.18 656 235 656 C235 671.51 235 687.02 235 703 C242.59 703 250.18 703 258 703 C258 710.92 258 718.84 258 727 C265.92 727 273.84 727 282 727 C282 734.59 282 742.18 282 750 C289.59 750 297.18 750 305 750 C305 757.92 305 765.84 305 774 C312.92 774 320.84 774 329 774 C329 781.59 329 789.18 329 797 C336.59 797 344.18 797 352 797 C352 804.59 352 812.18 352 820 C359.92 820 367.84 820 376 820 C376 827.92 376 835.84 376 844 C360.16 844 344.32 844 328 844 C328 836.41 328 828.82 328 821 C320.41 821 312.82 821 305 821 C305 813.08 305 805.16 305 797 C297.41 797 289.82 797 282 797 C282 789.41 282 781.82 282 774 C274.08 774 266.16 774 258 774 C258 781.59 258 789.18 258 797 C250.41 797 242.82 797 235 797 C235 804.92 235 812.84 235 821 C227.08 821 219.16 821 211 821 C211 828.59 211 836.18 211 844 C203.41 844 195.82 844 188 844 C188 851.92 188 859.84 188 868 C180.41 868 172.82 868 165 868 C165 875.59 165 883.18 165 891 C157.08 891 149.16 891 141 891 C141 898.92 141 906.84 141 915 C125.49 915 109.98 915 94 915 C94 922.59 94 930.18 94 938 C78.49 938 62.98 938 47 938 C47 945.92 47 953.84 47 962 C31.49 962 15.98 962 0 962 C0 946.16 0 930.32 0 914 C7.92 914 15.84 914 24 914 C24 890.9 24 867.8 24 844 C31.59 844 39.18 844 47 844 C47 828.49 47 812.98 47 797 C54.59 797 62.18 797 70 797 C70 789.41 70 781.82 70 774 C77.92 774 85.84 774 94 774 C94 766.08 94 758.16 94 750 C101.92 750 109.84 750 118 750 C118 742.41 118 734.82 118 727 C125.59 727 133.18 727 141 727 C141 719.08 141 711.16 141 703 C148.59 703 156.18 703 164 703 C164 695.41 164 687.82 164 680 C171.92 680 179.84 680 188 680 C188 656.9 188 633.8 188 610 C180.08 610 172.16 610 164 610 C164 501.76 164 393.52 164 282 C156.41 282 148.82 282 141 282 C141 289.59 141 297.18 141 305 C133.41 305 125.82 305 118 305 C118 312.59 118 320.18 118 328 C110.08 328 102.16 328 94 328 C94 320.41 94 312.82 94 305 C86.41 305 78.82 305 71 305 C71 281.57 71 258.14 71 234 C78.59 234 86.18 234 94 234 C94 226.41 94 218.82 94 211 C101.59 211 109.18 211 117 211 C117 203.41 117 195.82 117 188 C109.41 188 101.82 188 94 188 C94 180.08 94 172.16 94 164 C86.08 164 78.16 164 70 164 C70 156.41 70 148.82 70 141 C62.41 141 54.82 141 47 141 C47 133.41 47 125.82 47 118 C31.49 118 15.98 118 0 118 C0 110.08 0 102.16 0 94 C-7.92 94 -15.84 94 -24 94 C-24.023 84.89 -24.041 75.781 -24.052 66.671 C-24.057 62.442 -24.064 58.212 -24.075 53.983 C-24.086 49.904 -24.092 45.826 -24.095 41.748 C-24.097 40.188 -24.1 38.629 -24.106 37.069 C-24.113 34.893 -24.114 32.716 -24.114 30.539 C-24.116 29.298 -24.118 28.057 -24.12 26.778 C-24 24 -24 24 -23 23 C-21.292 22.913 -19.581 22.893 -17.871 22.902 C-16.94 22.905 -16.008 22.907 -15.049 22.91 C-14.453 22.914 -14.453 22.914 -11.438 22.938 C-7.663 22.958 -3.889 22.979 0 23 C0 15.41 0 7.82 0 0 Z " fill="#030302" transform="translate(962,281)"/>
<path d="M0 0 C31.02 0 62.04 0 94 0 C94 15.51 94 31.02 94 47 C86.08 47 78.16 47 70 47 C70 62.51 70 78.02 70 94 C178.24 94 286.48 94 398 94 C398 101.92 398 109.84 398 118 C413.84 118 429.68 118 446 118 C446 125.59 446 133.18 446 141 C469.1 141 492.2 141 516 141 C516 249.24 516 357.48 516 469 C508.41 469 500.82 469 493 469 C493 376.27 493 283.54 493 188 C485.08 188 477.16 188 469 188 C469 180.08 469 172.16 469 164 C445.9 164 422.8 164 399 164 C399 156.41 399 148.82 399 141 C305.94 141 212.88 141 117 141 C117 148.59 117 156.18 117 164 C93.9 164 70.8 164 47 164 C47 171.92 47 179.84 47 188 C39.08 188 31.16 188 23 188 C23 280.73 23 373.46 23 469 C15.41 469 7.82 469 0 469 C0 360.76 0 252.52 0 141 C23.1 141 46.2 141 70 141 C70 133.41 70 125.82 70 118 C46.9 118 23.8 118 0 118 C0 110.41 0 102.82 0 95 C-7.59 95 -15.18 95 -23 95 C-23 102.26 -23 109.52 -23 117 C-30.92 117 -38.84 117 -47 117 C-47 124.92 -47 132.84 -47 141 C-54.59 141 -62.18 141 -70 141 C-70 148.59 -70 156.18 -70 164 C-77.92 164 -85.84 164 -94 164 C-94 148.82 -94 133.64 -94 118 C-86.08 118 -78.16 118 -70 118 C-70 110.41 -70 102.82 -70 95 C-62.41 95 -54.82 95 -47 95 C-47 87.08 -47 79.16 -47 71 C-39.08 71 -31.16 71 -23 71 C-23 63.08 -23 55.16 -23 47 C-15.41 47 -7.82 47 0 47 C0 39.41 0 31.82 0 24 C-7.92 24 -15.84 24 -24 24 C-24 16.41 -24 8.82 -24 1 C-23.67 1 -23.34 1 -23 1 C-23 8.26 -23 15.52 -23 23 C-15.41 23 -7.82 23 0 23 C0 15.41 0 7.82 0 0 Z " fill="#A06C41" transform="translate(1150,398)"/>
<path d="M0 0 C3.609 -0.021 7.219 -0.041 10.938 -0.062 C12.077 -0.072 13.216 -0.081 14.39 -0.09 C15.281 -0.093 16.172 -0.095 17.09 -0.098 C17.548 -0.1 17.548 -0.1 19.867 -0.114 C22 0 22 0 23 1 C23.157 2.633 23.251 4.271 23.316 5.91 C23.355 6.801 23.393 7.692 23.432 8.61 C23.453 9.179 23.453 9.179 23.562 12.062 C23.635 13.867 23.635 13.867 24 23 C31.26 23 38.52 23 46 23 C46 15.41 46 7.82 46 0 C46.33 0 46.66 0 47 0 C47 7.59 47 15.18 47 23 C54.59 23 62.18 23 70 23 C70 30.59 70 38.18 70 46 C81.438 45.938 81.438 45.938 85.049 45.91 C85.514 45.909 85.514 45.909 87.871 45.902 C88.829 45.897 89.788 45.892 90.775 45.886 C93 46 93 46 94 47 C94.087 48.708 94.107 50.419 94.098 52.129 C94.095 53.06 94.093 53.992 94.09 54.951 C94.081 56.143 94.072 57.335 94.062 58.562 C94.042 62.337 94.021 66.111 94 70 C101.59 70 109.18 70 117 70 C117 77.92 117 85.84 117 94 C124.92 94 132.84 94 141 94 C141 101.59 141 109.18 141 117 C148.59 117 156.18 117 164 117 C164 132.51 164 148.02 164 164 C171.92 164 179.84 164 188 164 C188 187.1 188 210.2 188 234 C195.59 234 203.18 234 211 234 C211 249.51 211 265.02 211 281 C195.49 281 179.98 281 164 281 C164 273.41 164 265.82 164 258 C148.49 258 132.98 258 117 258 C117 250.41 117 242.82 117 235 C101.49 235 85.98 235 70 235 C70 227.08 70 219.16 70 211 C62.41 211 54.82 211 47 211 C47 203.41 47 195.82 47 188 C39.08 188 31.16 188 23 188 C23 180.08 23 172.16 23 164 C15.08 164 7.16 164 -1 164 C-1 156.41 -1 148.82 -1 141 C-8.59 141 -16.18 141 -24 141 C-24 133.08 -24 125.16 -24 117 C-31.59 117 -39.18 117 -47 117 C-47 109.41 -47 101.82 -47 94 C-54.59 94 -62.18 94 -70 94 C-70 93.67 -70 93.34 -70 93 C-62.41 93 -54.82 93 -47 93 C-47 85.41 -47 77.82 -47 70 C-31.82 70 -16.64 70 -1 70 C-1 62.41 -1 54.82 -1 47 C-8.59 47 -16.18 47 -24 47 C-24 39.41 -24 31.82 -24 24 C-16.08 24 -8.16 24 0 24 C0 16.08 0 8.16 0 0 Z " fill="#505050" transform="translate(1643,961)"/>
<path d="M0 0 C7.59 0 15.18 0 23 0 C23 7.59 23 15.18 23 23 C30.92 23 38.84 23 47 23 C47 30.59 47 38.18 47 46 C39.08 46 31.16 46 23 46 C23 53.59 23 61.18 23 69 C15.41 69 7.82 69 0 69 C0 76.92 0 84.84 0 93 C3.795 92.835 3.795 92.835 23 92 C23.33 84.41 23.66 76.82 24 69 C39.18 69 54.36 69 70 69 C70 76.59 70 84.18 70 92 C77.92 92 85.84 92 94 92 C94 92.33 94 92.66 94 93 C86.08 93 78.16 93 70 93 C70 100.59 70 108.18 70 116 C62.41 116 54.82 116 47 116 C47 123.92 47 131.84 47 140 C39.08 140 31.16 140 23 140 C23 147.59 23 155.18 23 163 C15.41 163 7.82 163 0 163 C0 170.92 0 178.84 0 187 C-7.59 187 -15.18 187 -23 187 C-23 194.59 -23 202.18 -23 210 C-30.92 210 -38.84 210 -47 210 C-47 217.92 -47 225.84 -47 234 C-62.51 234 -78.02 234 -94 234 C-94 241.59 -94 249.18 -94 257 C-109.51 257 -125.02 257 -141 257 C-141 264.92 -141 272.84 -141 281 C-156.51 281 -172.02 281 -188 281 C-188 265.16 -188 249.32 -188 233 C-180.08 233 -172.16 233 -164 233 C-164 209.9 -164 186.8 -164 163 C-156.41 163 -148.82 163 -141 163 C-141 147.49 -141 131.98 -141 116 C-133.41 116 -125.82 116 -118 116 C-118 108.41 -118 100.82 -118 93 C-110.08 93 -102.16 93 -94 93 C-94 85.08 -94 77.16 -94 69 C-86.08 69 -78.16 69 -70 69 C-70 61.41 -70 53.82 -70 46 C-54.49 46 -38.98 46 -23 46 C-23 38.41 -23 30.82 -23 23 C-15.41 23 -7.82 23 0 23 C0 15.41 0 7.82 0 0 Z " fill="#504F50" transform="translate(1150,962)"/>
<path d="M0 0 C31.02 0 62.04 0 94 0 C94 7.92 94 15.84 94 24 C101.59 24 109.18 24 117 24 C117 62.61 117 101.22 117 141 C109.41 141 101.82 141 94 141 C94 148.59 94 156.18 94 164 C86.41 164 78.82 164 71 164 C71 171.92 71 179.84 71 188 C39.65 188 8.3 188 -24 188 C-24 180.08 -24 172.16 -24 164 C-39.18 164 -54.36 164 -70 164 C-70 133.31 -70 102.62 -70 71 C-62.41 71 -54.82 71 -47 71 C-47 55.49 -47 39.98 -47 24 C-31.49 24 -15.98 24 0 24 C0 16.08 0 8.16 0 0 Z " fill="#8B8B8B" transform="translate(1361,656)"/>
<path d="M0 0 C31.02 0 62.04 0 94 0 C94 15.84 94 31.68 94 48 C101.59 48 109.18 48 117 48 C117 55.59 117 63.18 117 71 C124.92 71 132.84 71 141 71 C141 78.92 141 86.84 141 95 C148.59 95 156.18 95 164 95 C164 102.59 164 110.18 164 118 C171.92 118 179.84 118 188 118 C188 133.18 188 148.36 188 164 C180.08 164 172.16 164 164 164 C164 156.41 164 148.82 164 141 C156.08 141 148.16 141 140 141 C140 133.41 140 125.82 140 118 C132.41 118 124.82 118 117 118 C117 110.41 117 102.82 117 95 C109.41 95 101.82 95 94 95 C94 102.59 94 110.18 94 118 C55.06 118 16.12 118 -24 118 C-24 110.08 -24 102.16 -24 94 C-116.73 94 -209.46 94 -305 94 C-305 86.08 -305 78.16 -305 70 C-211.94 70 -118.88 70 -23 70 C-23 77.92 -23 85.84 -23 94 C-7.49 94 8.02 94 24 94 C24 78.49 24 62.98 24 47 C16.08 47 8.16 47 0 47 C0 31.49 0 15.98 0 0 Z " fill="#C08655" transform="translate(1572,398)"/>
<path d="M0 0 C23.43 0 46.86 0 71 0 C71 7.59 71 15.18 71 23 C78.59 23 86.18 23 94 23 C94 46.43 94 69.86 94 94 C86.41 94 78.82 94 71 94 C71 101.92 71 109.84 71 118 C55.49 118 39.98 118 24 118 C24 125.59 24 133.18 24 141 C16.41 141 8.82 141 1 141 C1 148.59 1 156.18 1 164 C-22.43 164 -45.86 164 -70 164 C-70 156.41 -70 148.82 -70 141 C-62.41 141 -54.82 141 -47 141 C-47 133.08 -47 125.16 -47 117 C-39.08 117 -31.16 117 -23 117 C-23 85.98 -23 54.96 -23 23 C-15.41 23 -7.82 23 0 23 C0 15.41 0 7.82 0 0 Z " fill="#4E191E" transform="translate(1783,281)"/>
<path d="M0 0 C31.02 0 62.04 0 94 0 C94 15.51 94 31.02 94 47 C86.08 47 78.16 47 70 47 C70 62.51 70 78.02 70 94 C85.51 94 101.02 94 117 94 C117 101.92 117 109.84 117 118 C78.39 118 39.78 118 0 118 C0 110.41 0 102.82 0 95 C-7.59 95 -15.18 95 -23 95 C-23 102.26 -23 109.52 -23 117 C-30.92 117 -38.84 117 -47 117 C-47 124.92 -47 132.84 -47 141 C-54.59 141 -62.18 141 -70 141 C-70 148.59 -70 156.18 -70 164 C-77.92 164 -85.84 164 -94 164 C-94 148.82 -94 133.64 -94 118 C-86.08 118 -78.16 118 -70 118 C-70 110.41 -70 102.82 -70 95 C-62.41 95 -54.82 95 -47 95 C-47 87.08 -47 79.16 -47 71 C-39.08 71 -31.16 71 -23 71 C-23 63.08 -23 55.16 -23 47 C-15.41 47 -7.82 47 0 47 C0 39.41 0 31.82 0 24 C-7.92 24 -15.84 24 -24 24 C-24 16.41 -24 8.82 -24 1 C-23.67 1 -23.34 1 -23 1 C-23 8.26 -23 15.52 -23 23 C-15.41 23 -7.82 23 0 23 C0 15.41 0 7.82 0 0 Z " fill="#B98356" transform="translate(1150,398)"/>
<path d="M0 0 C3.609 -0.021 7.219 -0.041 10.938 -0.062 C12.077 -0.072 13.216 -0.081 14.39 -0.09 C15.281 -0.093 16.172 -0.095 17.09 -0.098 C17.548 -0.1 17.548 -0.1 19.867 -0.114 C22 0 22 0 23 1 C23.157 2.633 23.251 4.271 23.316 5.91 C23.335 6.356 23.335 6.356 23.432 8.61 C23.475 9.749 23.518 10.889 23.562 12.062 C23.707 15.672 23.851 19.281 24 23 C31.26 23 38.52 23 46 23 C46 15.41 46 7.82 46 0 C46.33 0 46.66 0 47 0 C47 7.59 47 15.18 47 23 C54.59 23 62.18 23 70 23 C70 30.59 70 38.18 70 46 C81.438 45.938 81.438 45.938 85.049 45.91 C85.514 45.909 85.514 45.909 87.871 45.902 C88.829 45.897 89.788 45.892 90.775 45.886 C93 46 93 46 94 47 C94.087 48.708 94.107 50.419 94.098 52.129 C94.095 53.06 94.093 53.992 94.09 54.951 C94.081 56.143 94.072 57.335 94.062 58.562 C94.042 62.337 94.021 66.111 94 70 C101.59 70 109.18 70 117 70 C117 77.92 117 85.84 117 94 C124.92 94 132.84 94 141 94 C141 101.59 141 109.18 141 117 C148.59 117 156.18 117 164 117 C164 148.02 164 179.04 164 211 C156.08 211 148.16 211 140 211 C140 203.08 140 195.16 140 187 C132.41 187 124.82 187 117 187 C117 179.41 117 171.82 117 164 C109.41 164 101.82 164 94 164 C93.67 156.41 93.34 148.82 93 141 C89.205 140.835 89.205 140.835 70 140 C70 132.08 70 124.16 70 116 C62.41 116 54.82 116 47 116 C47 108.74 47 101.48 47 94 C39.08 94 31.16 94 23 94 C23 86.08 23 78.16 23 70 C15.41 70 7.82 70 0 70 C0 62.08 0 54.16 0 46 C-7.92 46 -15.84 46 -24 46 C-24 38.74 -24 31.48 -24 24 C-16.08 24 -8.16 24 0 24 C0 16.08 0 8.16 0 0 Z " fill="#8A8A8A" transform="translate(1643,961)"/>
<path d="M0 0 C7.59 0 15.18 0 23 0 C23.33 15.18 23.66 30.36 24 46 C31.59 46.33 39.18 46.66 47 47 C47 77.69 47 108.38 47 140 C39.41 140 31.82 140 24 140 C24 155.51 24 171.02 24 187 C8.49 187 -7.02 187 -23 187 C-23 194.59 -23 202.18 -23 210 C-54.02 210 -85.04 210 -117 210 C-117 202.41 -117 194.82 -117 187 C-132.51 187 -148.02 187 -164 187 C-164 171.49 -164 155.98 -164 140 C-156.41 140 -148.82 140 -141 140 C-141 147.92 -141 155.84 -141 164 C-109.65 164 -78.3 164 -46 164 C-46 156.08 -46 148.16 -46 140 C-38.41 140 -30.82 140 -23 140 C-23 132.41 -23 124.82 -23 117 C-15.41 117 -7.82 117 0 117 C0 78.39 0 39.78 0 0 Z " fill="#525151" transform="translate(1478,680)"/>
<path d="M0 0 C7.59 0 15.18 0 23 0 C23 7.59 23 15.18 23 23 C30.92 23 38.84 23 47 23 C47 30.59 47 38.18 47 46 C39.08 46 31.16 46 23 46 C23 53.59 23 61.18 23 69 C15.41 69 7.82 69 0 69 C0 76.92 0 84.84 0 93 C-7.92 93 -15.84 93 -24 93 C-24 100.59 -24 108.18 -24 116 C-31.59 116 -39.18 116 -47 116 C-47 123.59 -47 131.18 -47 139 C-54.92 139 -62.84 139 -71 139 C-71 146.92 -71 154.84 -71 163 C-78.59 163 -86.18 163 -94 163 C-94 170.92 -94 178.84 -94 187 C-101.92 187 -109.84 187 -118 187 C-118 194.59 -118 202.18 -118 210 C-125.59 210 -133.18 210 -141 210 C-141 178.98 -141 147.96 -141 116 C-133.41 116 -125.82 116 -118 116 C-118 108.41 -118 100.82 -118 93 C-110.08 93 -102.16 93 -94 93 C-94 85.08 -94 77.16 -94 69 C-86.08 69 -78.16 69 -70 69 C-70 61.41 -70 53.82 -70 46 C-54.49 46 -38.98 46 -23 46 C-23 38.41 -23 30.82 -23 23 C-15.41 23 -7.82 23 0 23 C0 15.41 0 7.82 0 0 Z " fill="#8A8A8A" transform="translate(1150,962)"/>
<path d="M0 0 C3.774 -0.021 7.549 -0.041 11.438 -0.062 C12.629 -0.072 13.821 -0.081 15.049 -0.09 C15.514 -0.091 15.514 -0.091 17.871 -0.098 C18.829 -0.103 19.788 -0.108 20.775 -0.114 C23 0 23 0 24 1 C24.098 2.407 24.128 3.818 24.129 5.229 C24.133 6.126 24.136 7.024 24.139 7.949 C24.138 8.437 24.138 8.437 24.133 10.906 C24.134 11.901 24.135 12.896 24.136 13.922 C24.136 16.03 24.135 18.138 24.13 20.247 C24.125 23.486 24.13 26.725 24.137 29.965 C24.136 32.008 24.135 34.051 24.133 36.094 C24.135 37.07 24.137 38.046 24.139 39.051 C24.137 39.5 24.137 39.5 24.129 41.771 C24.129 42.566 24.128 43.36 24.127 44.178 C24 46 24 46 23 47 C21.292 47.087 19.581 47.107 17.871 47.098 C16.94 47.095 16.008 47.093 15.049 47.09 C13.857 47.081 12.665 47.072 11.438 47.062 C7.663 47.042 3.889 47.021 0 47 C0 54.59 0 62.18 0 70 C-23.1 70 -46.2 70 -70 70 C-70 77.92 -70 85.84 -70 94 C-77.92 94 -85.84 94 -94 94 C-94 186.73 -94 279.46 -94 375 C-101.59 375 -109.18 375 -117 375 C-117 266.76 -117 158.52 -117 47 C-93.9 47 -70.8 47 -47 47 C-47 39.08 -47 31.16 -47 23 C-39.245 23.165 -39.245 23.165 0 24 C0 16.08 0 8.16 0 0 Z " fill="#C38957" transform="translate(1267,492)"/>
<path d="M0 0 C23.43 0 46.86 0 71 0 C71 7.59 71 15.18 71 23 C78.59 23 86.18 23 94 23 C94 23.33 94 23.66 94 24 C86.41 24 78.82 24 71 24 C71 39.51 71 55.02 71 71 C63.08 71 55.16 71 47 71 C47 78.59 47 86.18 47 94 C62.51 94 78.02 94 94 94 C94 101.59 94 109.18 94 117 C101.92 117 109.84 117 118 117 C118 124.92 118 132.84 118 141 C125.59 141 133.18 141 141 141 C141 148.92 141 156.84 141 165 C133.08 165 125.16 165 117 165 C117 157.08 117 149.16 117 141 C101.82 141 86.64 141 71 141 C71 148.59 71 156.18 71 164 C70.67 164 70.34 164 70 164 C70 156.41 70 148.82 70 141 C62.41 141 54.82 141 47 141 C47 133.41 47 125.82 47 118 C31.49 118 15.98 118 0 118 C0 110.08 0 102.16 0 94 C-7.92 94 -15.84 94 -24 94 C-24.023 84.89 -24.041 75.781 -24.052 66.671 C-24.057 62.442 -24.064 58.212 -24.075 53.983 C-24.086 49.904 -24.092 45.826 -24.095 41.748 C-24.097 40.188 -24.1 38.629 -24.106 37.069 C-24.113 34.893 -24.114 32.716 -24.114 30.539 C-24.116 29.298 -24.118 28.057 -24.12 26.778 C-24 24 -24 24 -23 23 C-21.292 22.913 -19.581 22.893 -17.871 22.902 C-16.94 22.905 -16.008 22.907 -15.049 22.91 C-14.453 22.914 -14.453 22.914 -11.438 22.938 C-7.663 22.958 -3.889 22.979 0 23 C0 15.41 0 7.82 0 0 Z " fill="#9D6C42" transform="translate(962,281)"/>
<path d="M0 0 C93.06 0 186.12 0 282 0 C282 7.59 282 15.18 282 23 C305.1 23 328.2 23 352 23 C352 30.92 352 38.84 352 47 C328.57 47 305.14 47 281 47 C281 39.41 281 31.82 281 24 C243.05 24 205.1 24 166 24 C166 46.44 166 68.88 166 92 C165.67 92 165.34 92 165 92 C165 69.56 165 47.12 165 24 C110.55 24 56.1 24 0 24 C0 31.59 0 39.18 0 47 C-23.1 47 -46.2 47 -70 47 C-70 39.08 -70 31.16 -70 23 C-46.9 23 -23.8 23 0 23 C0 15.41 0 7.82 0 0 Z " fill="#030202" transform="translate(1267,539)"/>
<path d="M0 0 C7.59 0 15.18 0 23 0 C23 15.51 23 31.02 23 47 C30.59 47 38.18 47 46 47 C46 54.59 46 62.18 46 70 C53.92 70 61.84 70 70 70 C70 77.59 70 85.18 70 93 C77.59 93 85.18 93 93 93 C93 100.92 93 108.84 93 117 C100.92 117 108.84 117 117 117 C117 124.59 117 132.18 117 140 C109.41 140 101.82 140 94 140 C94 147.92 94 155.84 94 164 C86.08 164 78.16 164 70 164 C70 171.92 70 179.84 70 188 C62.41 188 54.82 188 47 188 C47 195.59 47 203.18 47 211 C31.49 211 15.98 211 0 211 C0 210.67 0 210.34 0 210 C7.59 210 15.18 210 23 210 C23 202.41 23 194.82 23 187 C30.59 187 38.18 187 46 187 C46 179.41 46 171.82 46 164 C38.41 164 30.82 164 23 164 C23 156.08 23 148.16 23 140 C15.41 140 7.82 140 0 140 C0 132.41 0 124.82 0 117 C15.18 117 30.36 117 46 117 C46 124.92 46 132.84 46 141 C53.92 141 61.84 141 70 141 C70 133.08 70 125.16 70 117 C62.41 117 54.82 117 47 117 C47 109.08 47 101.16 47 93 C39.08 93 31.16 93 23 93 C23 85.41 23 77.82 23 70 C7.49 70 -8.02 70 -24 70 C-24 62.41 -24 54.82 -24 47 C-16.08 47 -8.16 47 0 47 C0 31.49 0 15.98 0 0 Z " fill="#040303" transform="translate(1033,305)"/>
<path d="M0 0 C15.51 0 31.02 0 47 0 C47 7.92 47 15.84 47 24 C39.08 23.67 31.16 23.34 23 23 C23 30.59 23 38.18 23 46 C15.41 46 7.82 46 0 46 C0 53.92 0 61.84 0 70 C-7.92 70 -15.84 70 -24 70 C-24 85.84 -24 101.68 -24 118 C-31.59 118 -39.18 118 -47 118 C-47 125.59 -47 133.18 -47 141 C-78.02 141 -109.04 141 -141 141 C-141 133.41 -141 125.82 -141 118 C-148.59 118 -156.18 118 -164 118 C-164 110.08 -164 102.16 -164 94 C-148.49 94 -132.98 94 -117 94 C-117 101.59 -117 109.18 -117 117 C-109.41 117 -101.82 117 -94 117 C-94 102.15 -94 87.3 -94 72 C-78.49 72 -62.98 72 -47 72 C-47 63.75 -47 55.5 -47 47 C-39.08 47 -31.16 47 -23 47 C-23 39.41 -23 31.82 -23 24 C-15.41 24 -7.82 24 0 24 C0 16.08 0 8.16 0 0 Z " fill="#9E6A3E" transform="translate(1502,1031)"/>
<path d="M0 0 C7.92 0 15.84 0 24 0 C24 108.24 24 216.48 24 328 C31.92 328 39.84 328 48 328 C48 351.43 48 374.86 48 399 C55.59 399 63.18 399 71 399 C71 406.59 71 414.18 71 422 C78.26 422 85.52 422 93 422 C93 406.82 93 391.64 93 376 C85.74 376 78.48 376 71 376 C71 375.67 71 375.34 71 375 C78.59 375 86.18 375 94 375 C94 390.51 94 406.02 94 422 C101.59 422 109.18 422 117 422 C117 429.92 117 437.84 117 446 C124.92 446 132.84 446 141 446 C141 453.59 141 461.18 141 469 C148.59 469 156.18 469 164 469 C164 476.92 164 484.84 164 493 C171.92 493 179.84 493 188 493 C188 500.59 188 508.18 188 516 C195.59 516 203.18 516 211 516 C211 523.59 211 531.18 211 539 C218.92 539 226.84 539 235 539 C235 546.92 235 554.84 235 563 C219.16 563 203.32 563 187 563 C187 555.41 187 547.82 187 540 C179.41 540 171.82 540 164 540 C164 532.08 164 524.16 164 516 C156.41 516 148.82 516 141 516 C141 508.08 141 500.16 141 492 C133.08 492 125.16 492 117 492 C117 484.41 117 476.82 117 469 C101.82 469 86.64 469 71 469 C71 476.59 71 484.18 71 492 C70 493 70 493 67.775 493.114 C66.817 493.108 65.858 493.103 64.871 493.098 C63.94 493.095 63.008 493.093 62.049 493.09 C61.453 493.086 61.453 493.086 58.438 493.062 C54.663 493.042 50.889 493.021 47 493 C47 485.08 47 477.16 47 469 C54.59 469 62.18 469 70 469 C70 461.41 70 453.82 70 446 C77.92 446 85.84 446 94 446 C94 438.41 94 430.82 94 423 C86.08 423 78.16 423 70 423 C70 415.41 70 407.82 70 400 C62.41 400 54.82 400 47 400 C47 407.59 47 415.18 47 423 C39.41 423 31.82 423 24 423 C24 430.59 24 438.18 24 446 C16.08 446 8.16 446 0 446 C0 438.08 0 430.16 0 422 C7.59 422 15.18 422 23 422 C23 414.41 23 406.82 23 399 C30.92 399 38.84 399 47 399 C47 375.9 47 352.8 47 329 C39.08 329 31.16 329 23 329 C23 220.76 23 112.52 23 1 C15.41 1 7.82 1 0 1 C0 0.67 0 0.34 0 0 Z " fill="#060504" transform="translate(1103,562)"/>
<path d="M0 0 C15.84 0 31.68 0 48 0 C48 54.12 48 108.24 48 164 C32.16 164 16.32 164 0 164 C0 109.88 0 55.76 0 0 Z " fill="#9F6A3E" transform="translate(1384,914)"/>
<path d="M0 0 C92.73 0 185.46 0 281 0 C281 7.59 281 15.18 281 23 C188.27 23 95.54 23 0 23 C0 15.41 0 7.82 0 0 Z " fill="#030202" transform="translate(1267,469)"/>
<path d="M0 0 C15.51 0 31.02 0 47 0 C47 7.59 47 15.18 47 23 C54.59 23 62.18 23 70 23 C70 30.92 70 38.84 70 47 C77.92 47 85.84 47 94 47 C94 54.59 94 62.18 94 70 C101.59 70 109.18 70 117 70 C117 77.92 117 85.84 117 94 C116.67 94 116.34 94 116 94 C116 86.41 116 78.82 116 71 C108.41 71 100.82 71 93 71 C93 63.41 93 55.82 93 48 C85.41 48 77.82 48 70 48 C70 55.59 70 63.18 70 71 C31.06 71 -7.88 71 -48 71 C-48 55.49 -48 39.98 -48 24 C-140.73 24 -233.46 24 -329 24 C-329 23.67 -329 23.34 -329 23 C-235.94 23 -142.88 23 -47 23 C-47 30.92 -47 38.84 -47 47 C-31.49 47 -15.98 47 0 47 C0 31.49 0 15.98 0 0 Z " fill="#473D38" transform="translate(1596,445)"/>
<path d="M0 0 C15.51 0 31.02 0 47 0 C47 15.51 47 31.02 47 47 C62.51 47 78.02 47 94 47 C94 54.92 94 62.84 94 71 C55.39 71 16.78 71 -23 71 C-23 63.41 -23 55.82 -23 48 C-30.59 48 -38.18 48 -46 48 C-46 55.26 -46 62.52 -46 70 C-46.33 70 -46.66 70 -47 70 C-47 62.41 -47 54.82 -47 47 C-39.08 47 -31.16 47 -23 47 C-23 39.08 -23 31.16 -23 23 C-15.41 23 -7.82 23 0 23 C0 15.41 0 7.82 0 0 Z " fill="#888888" transform="translate(1173,445)"/>
<path d="M0 0 C15.51 0 31.02 0 47 0 C47 7.92 47 15.84 47 24 C54.92 24 62.84 24 71 24 C71 31.59 71 39.18 71 47 C78.59 47 86.18 47 94 47 C94 54.92 94 62.84 94 71 C125.02 71 156.04 71 188 71 C188 71.33 188 71.66 188 72 C172.49 72 156.98 72 141 72 C141 86.85 141 101.7 141 117 C133.41 117 125.82 117 118 117 C118 109.41 118 101.82 118 94 C102.49 94 86.98 94 71 94 C71 86.08 71 78.16 71 70 C63.08 70 55.16 70 47 70 C47 62.41 47 54.82 47 47 C39.41 47 31.82 47 24 47 C24 39.41 24 31.82 24 24 C16.08 24 8.16 24 0 24 C0 16.08 0 8.16 0 0 Z " fill="#BE8656" transform="translate(1267,1031)"/>
<path d="M0 0 C7.59 0 15.18 0 23 0 C23 23.1 23 46.2 23 70 C15.41 70 7.82 70 0 70 C0 85.51 0 101.02 0 117 C-7.59 117 -15.18 117 -23 117 C-23 124.92 -23 132.84 -23 141 C-30.92 141 -38.84 141 -47 141 C-47 148.59 -47 156.18 -47 164 C-54.59 164 -62.18 164 -70 164 C-70 148.82 -70 133.64 -70 118 C-62.41 118 -54.82 118 -47 118 C-47 110.08 -47 102.16 -47 94 C-39.08 94 -31.16 94 -23 94 C-23 78.49 -23 62.98 -23 47 C-15.41 47 -7.82 47 0 47 C0 31.49 0 15.98 0 0 Z " fill="#9F6C41" transform="translate(1619,867)"/>
<path d="M0 0 C7.59 0 15.18 0 23 0 C23 15.18 23 30.36 23 46 C30.59 46 38.18 46 46 46 C46 61.51 46 77.02 46 93 C53.92 93 61.84 93 70 93 C70 100.92 70 108.84 70 117 C77.59 117 85.18 117 93 117 C93 132.18 93 147.36 93 163 C85.41 163 77.82 163 70 163 C70 155.41 70 147.82 70 140 C62.08 140 54.16 140 46 140 C46 132.08 46 124.16 46 116 C38.41 116 30.82 116 23 116 C23 100.49 23 84.98 23 69 C15.41 69 7.82 69 0 69 C0 46.23 0 23.46 0 0 Z " fill="#BF8653" transform="translate(1174,868)"/>
<path d="M0 0 C7.59 0 15.18 0 23 0 C23 23.1 23 46.2 23 70 C38.51 70 54.02 70 70 70 C70 77.92 70 85.84 70 94 C54.49 94 38.98 94 23 94 C23 101.92 23 109.84 23 118 C7.49 118 -8.02 118 -24 118 C-24 102.16 -24 86.32 -24 70 C-16.08 70 -8.16 70 0 70 C0 46.9 0 23.8 0 0 Z " fill="#050605" transform="translate(986,1125)"/>
<path d="M0 0 C15.51 0 31.02 0 47 0 C47 7.59 47 15.18 47 23 C58.437 22.938 58.437 22.938 62.049 22.91 C62.514 22.909 62.514 22.909 64.871 22.902 C65.829 22.897 66.788 22.892 67.775 22.886 C70 23 70 23 71 24 C71.093 25.443 71.117 26.89 71.114 28.336 C71.113 28.797 71.113 28.797 71.113 31.127 C71.108 32.128 71.103 33.129 71.098 34.16 C71.096 35.18 71.095 36.199 71.093 37.25 C71.088 40.521 71.075 43.792 71.062 47.062 C71.057 49.274 71.053 51.486 71.049 53.697 C71.039 59.132 71.019 64.566 71 70 C78.59 70 86.18 70 94 70 C94 101.02 94 132.04 94 164 C86.08 164 78.16 164 70 164 C70 133.31 70 102.62 70 71 C62.41 71 54.82 71 47 71 C46 70 46 70 45.88 68.133 C45.882 67.318 45.884 66.503 45.886 65.664 C45.887 64.73 45.887 63.796 45.887 62.834 C45.892 61.846 45.897 60.858 45.902 59.84 C45.903 58.937 45.904 58.033 45.905 57.103 C45.911 53.714 45.925 50.326 45.938 46.938 C45.958 39.368 45.979 31.799 46 24 C30.82 24 15.64 24 0 24 C0 16.08 0 8.16 0 0 Z " fill="#040404" transform="translate(1455,656)"/>
<path d="M0 0 C15.84 0 31.68 0 48 0 C48 7.92 48 15.84 48 24 C32.49 24 16.98 24 1 24 C1 39.51 1 55.02 1 71 C-6.59 71 -14.18 71 -22 71 C-22 101.69 -22 132.38 -22 164 C-29.92 164 -37.84 164 -46 164 C-46 132.98 -46 101.96 -46 70 C-38.41 70 -30.82 70 -23 70 C-23 54.49 -23 38.98 -23 23 C-15.41 23 -7.82 23 0 23 C0 15.41 0 7.82 0 0 Z " fill="#050606" transform="translate(1313,656)"/>
<path d="M0 0 C15.51 0 31.02 0 47 0 C47 7.59 47 15.18 47 23 C78.02 23 109.04 23 141 23 C141 15.41 141 7.82 141 0 C156.51 0 172.02 0 188 0 C188 7.92 188 15.84 188 24 C172.49 24 156.98 24 141 24 C141 31.59 141 39.18 141 47 C109.98 47 78.96 47 47 47 C47 39.41 47 31.82 47 24 C31.49 24 15.98 24 0 24 C0 16.08 0 8.16 0 0 Z " fill="#040404" transform="translate(1314,867)"/>
<path d="M0 0 C31.02 0 62.04 0 94 0 C94 7.59 94 15.18 94 23 C101.92 23 109.84 23 118 23 C118 30.92 118 38.84 118 47 C125.59 47 133.18 47 141 47 C141 54.92 141 62.84 141 71 C133.08 71 125.16 71 117 71 C117 63.08 117 55.16 117 47 C101.82 47 86.64 47 71 47 C71 54.59 71 62.18 71 70 C70.67 70 70.34 70 70 70 C70 62.41 70 54.82 70 47 C62.41 47 54.82 47 47 47 C47 39.41 47 31.82 47 24 C31.49 24 15.98 24 0 24 C0 16.08 0 8.16 0 0 Z " fill="#601D24" transform="translate(962,375)"/>
<path d="M0 0 C15.51 0 31.02 0 47 0 C47 7.59 47 15.18 47 23 C62.51 23 78.02 23 94 23 C94 15.41 94 7.82 94 0 C109.18 0 124.36 0 140 0 C140 7.92 140 15.84 140 24 C132.41 24 124.82 24 117 24 C117 31.59 117 39.18 117 47 C85.98 47 54.96 47 23 47 C23 39.41 23 31.82 23 24 C15.41 24 7.82 24 0 24 C0 16.08 0 8.16 0 0 Z " fill="#070605" transform="translate(1338,1125)"/>
<path d="M0 0 C22.77 0 45.54 0 69 0 C69 23.1 69 46.2 69 70 C53.82 70 38.64 70 23 70 C23 62.08 23 54.16 23 46 C15.41 46 7.82 46 0 46 C0 30.82 0 15.64 0 0 Z " fill="#A06D42" transform="translate(1784,305)"/>
<path d="M0 0 C31.02 0 62.04 0 94 0 C94 14.85 94 29.7 94 45 C62.98 45 31.96 45 0 45 C0 30.15 0 15.3 0 0 Z " fill="#C48956" transform="translate(1314,493)"/>
<path d="M0 0 C93.06 0 186.12 0 282 0 C282 7.59 282 15.18 282 23 C305.1 23 328.2 23 352 23 C352 30.92 352 38.84 352 47 C328.57 47 305.14 47 281 47 C281 39.41 281 31.82 281 24 C243.05 24 205.1 24 166 24 C166 46.44 166 68.88 166 92 C165.67 92 165.34 92 165 92 C165 69.56 165 47.12 165 24 C110.55 24 56.1 24 0 24 C0 31.59 0 39.18 0 47 C-23.1 47 -46.2 47 -70 47 C-70 39.08 -70 31.16 -70 23 C-46.9 23 -23.8 23 0 23 C0 15.41 0 7.82 0 0 Z M1 1 C1 8.26 1 15.52 1 23 C93.4 23 185.8 23 281 23 C281 15.74 281 8.48 281 1 C188.6 1 96.2 1 1 1 Z " fill="#130D0A" transform="translate(1267,539)"/>
<path d="M0 0 C15.51 0 31.02 0 47 0 C47 15.18 47 30.36 47 46 C39.41 46 31.82 46 24 46 C24 53.92 24 61.84 24 70 C8.49 70 -7.02 70 -23 70 C-23 54.49 -23 38.98 -23 23 C-15.41 23 -7.82 23 0 23 C0 15.41 0 7.82 0 0 Z " fill="#D3D3D3" transform="translate(1361,680)"/>
<path d="M0 0 C7.92 0 15.84 0 24 0 C24 53.79 24 107.58 24 163 C16.41 163 8.82 163 1 163 C0.67 109.21 0.34 55.42 0 0 Z " fill="#C28754" transform="translate(1384,914)"/>
<path d="M0 0 C3.958 -0.087 7.916 -0.14 11.875 -0.188 C13.003 -0.213 14.131 -0.238 15.293 -0.264 C15.831 -0.269 15.831 -0.269 18.555 -0.293 C19.052 -0.301 19.052 -0.301 21.57 -0.341 C22.372 -0.228 23.174 -0.116 24 0 C26.089 3.133 26.249 3.851 26.23 7.414 C26.229 8.257 26.227 9.1 26.225 9.969 C26.212 10.845 26.2 11.722 26.188 12.625 C26.187 13.067 26.187 13.067 26.186 15.305 C26.14 21.86 26.14 21.86 25 23 C24.842 24.779 24.749 26.563 24.684 28.348 C24.642 29.427 24.6 30.507 24.557 31.619 C24.517 32.755 24.478 33.892 24.438 35.062 C24.416 35.633 24.416 35.633 24.307 38.518 C24.2 41.345 24.1 44.172 24 47 C31.26 47 38.52 47 46 47 C46 39.74 46 32.48 46 25 C46.33 25 46.66 25 47 25 C47 32.59 47 40.18 47 48 C39.08 48 31.16 48 23 48 C23 55.92 23 63.84 23 72 C15.41 72 7.82 72 0 72 C0 79.59 0 87.18 0 95 C-15.51 95 -31.02 95 -47 95 C-47 94.67 -47 94.34 -47 94 C-39.41 94 -31.82 94 -24 94 C-24 86.41 -24 78.82 -24 71 C-16.41 71 -8.82 71 -1 71 C-1 63.41 -1 55.82 -1 48 C-8.59 48 -16.18 48 -24 48 C-24 40.08 -24 32.16 -24 24 C-31.59 24 -39.18 24 -47 24 C-47 16.41 -47 8.82 -47 1 C-31.82 1 -16.64 1 -1 1 C-1 8.92 -1 16.84 -1 25 C6.92 25 14.84 25 23 25 C23 17.08 23 9.16 23 1 C15.41 1 7.82 1 0 1 C0 0.67 0 0.34 0 0 Z " fill="#5A1B24" transform="translate(1080,421)"/>
<path d="M0 0 C15.51 0 31.02 0 47 0 C47 22.77 47 45.54 47 69 C31.49 69 15.98 69 0 69 C0 46.23 0 23.46 0 0 Z " fill="#9F6B3E" transform="translate(1385,563)"/>
<path d="M0 0 C7.59 0 15.18 0 23 0 C23 7.92 23 15.84 23 24 C30.59 24 38.18 24 46 24 C46 31.59 46 39.18 46 47 C53.92 47 61.84 47 70 47 C70 62.18 70 77.36 70 93 C62.08 93 54.16 93 46 93 C46 85.41 46 77.82 46 70 C38.41 70 30.82 70 23 70 C23 62.08 23 54.16 23 46 C15.41 46 7.82 46 0 46 C0 30.82 0 15.64 0 0 Z " fill="#A06C40" transform="translate(1690,469)"/>
<path d="M0 0 C7.59 0 15.18 0 23 0 C23 15.18 23 30.36 23 46 C15.41 46 7.82 46 0 46 C0 53.92 0 61.84 0 70 C-7.59 70 -15.18 70 -23 70 C-23 77.59 -23 85.18 -23 93 C-30.92 93 -38.84 93 -47 93 C-47 77.82 -47 62.64 -47 47 C-39.08 47 -31.16 47 -23 47 C-23 39.41 -23 31.82 -23 24 C-15.41 24 -7.82 24 0 24 C0 16.08 0 8.16 0 0 Z " fill="#A06D42" transform="translate(1103,469)"/>
<path d="M0 0 C31.02 0 62.04 0 94 0 C94 7.92 94 15.84 94 24 C70.9 24 47.8 24 24 24 C24 31.59 24 39.18 24 47 C16.08 47 8.16 47 0 47 C0 31.49 0 15.98 0 0 Z " fill="#070505" transform="translate(1572,398)"/>
<path d="M0 0 C7.59 0 15.18 0 23 0 C23 7.92 23 15.84 23 24 C30.59 24 38.18 24 46 24 C46.33 31.26 46.66 38.52 47 46 C54.59 46.33 62.18 46.66 70 47 C70 54.59 70 62.18 70 70 C77.59 70 85.18 70 93 70 C93 77.92 93 85.84 93 94 C85.41 94 77.82 94 70 94 C70 86.41 70 78.82 70 71 C62.08 71 54.16 71 46 71 C46 63.08 46 55.16 46 47 C30.49 47 14.98 47 -1 47 C-1.021 39.616 -1.041 32.232 -1.062 24.625 C-1.072 22.294 -1.081 19.963 -1.09 17.561 C-1.093 15.72 -1.096 13.88 -1.098 12.039 C-1.103 11.078 -1.108 10.116 -1.113 9.126 C-1.113 8.212 -1.113 7.299 -1.114 6.358 C-1.116 5.563 -1.118 4.768 -1.12 3.949 C-1 2 -1 2 0 0 Z " fill="#050302" transform="translate(1268,984)"/>
<path d="M0 0 C7.59 0 15.18 0 23 0 C23 15.18 23 30.36 23 46 C15.74 46 8.48 46 1 46 C0.67 53.92 0.34 61.84 0 70 C-15.51 70 -31.02 70 -47 70 C-47 62.41 -47 54.82 -47 47 C-39.41 47 -31.82 47 -24 47 C-24 39.08 -24 31.16 -24 23 C-16.08 23 -8.16 23 0 23 C0 15.41 0 7.82 0 0 Z " fill="#5E2024" transform="translate(1760,375)"/>
<path d="M0 0 C7.59 0 15.18 0 23 0 C23 23.1 23 46.2 23 70 C15.41 70 7.82 70 0 70 C0 77.59 0 85.18 0 93 C-15.51 93 -31.02 93 -47 93 C-47 85.41 -47 77.82 -47 70 C-39.41 69.835 -39.41 69.835 -1 69 C-0.67 46.23 -0.34 23.46 0 0 Z " fill="#040303" transform="translate(1854,305)"/>
<path d="M0 0 C30.69 0 61.38 0 93 0 C93 15.18 93 30.36 93 46 C85.08 46 77.16 46 69 46 C69 38.08 69 30.16 69 22 C46.23 22 23.46 22 0 22 C0 14.74 0 7.48 0 0 Z " fill="#030202" transform="translate(1151,399)"/>
<path d="M0 0 C7.92 0 15.84 0 24 0 C24 7.59 24 15.18 24 23 C31.59 23 39.18 23 47 23 C47 15.41 47 7.82 47 0 C62.51 0 78.02 0 94 0 C94 7.92 94 15.84 94 24 C86.41 24 78.82 24 71 24 C71 31.59 71 39.18 71 47 C78.59 47 86.18 47 94 47 C94 54.59 94 62.18 94 70 C101.59 70 109.18 70 117 70 C117 70.33 117 70.66 117 71 C101.49 71 85.98 71 70 71 C70 63.41 70 55.82 70 48 C62.41 48 54.82 48 47 48 C47 40.08 47 32.16 47 24 C39.08 24 31.16 24 23 24 C23 16.41 23 8.82 23 1 C15.41 1 7.82 1 0 1 C0 0.67 0 0.34 0 0 Z " fill="#5E1E29" transform="translate(1666,445)"/>
<path d="M0 0 C31.02 0 62.04 0 94 0 C94 7.92 94 15.84 94 24 C62.98 24 31.96 24 0 24 C0 16.08 0 8.16 0 0 Z " fill="#070403" transform="translate(1361,1078)"/>
<path d="M0 0 C7.59 0 15.18 0 23 0 C23 15.51 23 31.02 23 47 C15.41 47 7.82 47 0 47 C0 62.51 0 78.02 0 94 C-7.92 94 -15.84 94 -24 94 C-24 78.49 -24 62.98 -24 47 C-16.41 46.67 -8.82 46.34 -1 46 C-0.67 30.82 -0.34 15.64 0 0 Z " fill="#040302" transform="translate(1596,867)"/>
<path d="M0 0 C31.02 0 62.04 0 94 0 C94 7.59 94 15.18 94 23 C62.98 23 31.96 23 0 23 C0 15.41 0 7.82 0 0 Z " fill="#020101" transform="translate(1361,633)"/>
<path d="M0 0 C7.59 0 15.18 0 23 0 C23 23.1 23 46.2 23 70 C7.49 70 -8.02 70 -24 70 C-24 62.41 -24 54.82 -24 47 C-16.08 47 -8.16 47 0 47 C0 31.49 0 15.98 0 0 Z " fill="#080202" transform="translate(1033,305)"/>
<path d="M0 0 C7.92 0 15.84 0 24 0 C24 108.24 24 216.48 24 328 C31.92 328 39.84 328 48 328 C48 351.43 48 374.86 48 399 C55.59 399 63.18 399 71 399 C71 406.59 71 414.18 71 422 C78.26 422 85.52 422 93 422 C93 406.82 93 391.64 93 376 C85.74 376 78.48 376 71 376 C71 375.67 71 375.34 71 375 C78.59 375 86.18 375 94 375 C94 390.51 94 406.02 94 422 C101.59 422 109.18 422 117 422 C117 422.33 117 422.66 117 423 C101.49 423 85.98 423 70 423 C70 415.41 70 407.82 70 400 C62.41 400 54.82 400 47 400 C47 407.59 47 415.18 47 423 C39.41 423 31.82 423 24 423 C24 430.59 24 438.18 24 446 C16.08 446 8.16 446 0 446 C0 438.08 0 430.16 0 422 C7.59 422 15.18 422 23 422 C23 414.41 23 406.82 23 399 C30.92 399 38.84 399 47 399 C47 375.9 47 352.8 47 329 C39.08 329 31.16 329 23 329 C23 220.76 23 112.52 23 1 C15.41 1 7.82 1 0 1 C0 0.67 0 0.34 0 0 Z " fill="#3E3E3E" transform="translate(1103,562)"/>
<path d="M0 0 C7.92 0 15.84 0 24 0 C24 7.59 24 15.18 24 23 C39.51 23 55.02 23 71 23 C71 23.33 71 23.66 71 24 C55.49 24 39.98 24 24 24 C24 31.59 24 39.18 24 47 C16.41 47 8.82 47 1 47 C1 54.59 1 62.18 1 70 C-6.92 70 -14.84 70 -23 70 C-23 62.08 -23 54.16 -23 46 C-16.143 42.571 -7.658 45.635 0 46 C0 30.82 0 15.64 0 0 Z " fill="#67202A" transform="translate(1783,375)"/>
<path d="M0 0 C23.1 0 46.2 0 70 0 C70 7.92 70 15.84 70 24 C46.9 24 23.8 24 0 24 C0 16.08 0 8.16 0 0 Z " fill="#040302" transform="translate(1549,562)"/>
<path d="M0 0 C7.59 0 15.18 0 23 0 C23 7.92 23 15.84 23 24 C30.92 24 38.84 24 47 24 C47 31.59 47 39.18 47 47 C31.49 47 15.98 47 0 47 C0 31.49 0 15.98 0 0 Z " fill="#020202" transform="translate(1549,609)"/>
<path d="M0 0 C7.59 0 15.18 0 23 0 C23 15.51 23 31.02 23 47 C7.49 47 -8.02 47 -24 47 C-24 39.41 -24 31.82 -24 24 C-16.08 24 -8.16 24 0 24 C0 16.08 0 8.16 0 0 Z " fill="#020201" transform="translate(1244,609)"/>
<path d="M0 0 C7.59 0 15.18 0 23 0 C23.33 7.26 23.66 14.52 24 22 C39.18 22.33 54.36 22.66 70 23 C70 30.59 70 38.18 70 46 C54.49 46 38.98 46 23 46 C23 38.41 23 30.82 23 23 C15.41 23 7.82 23 0 23 C0 15.41 0 7.82 0 0 Z " fill="#030303" transform="translate(1690,1149)"/>
<path d="M0 0 C7.59 0 15.18 0 23 0 C23 23.1 23 46.2 23 70 C15.41 70 7.82 70 0 70 C0 46.9 0 23.8 0 0 Z " fill="#030303" transform="translate(1807,1125)"/>
<path d="M0 0 C7.59 0 15.18 0 23 0 C23 23.1 23 46.2 23 70 C15.41 70 7.82 70 0 70 C0 46.9 0 23.8 0 0 Z " fill="#030303" transform="translate(986,1125)"/>
<path d="M0 0 C7.59 0 15.18 0 23 0 C23 15.51 23 31.02 23 47 C7.82 47 -7.36 47 -23 47 C-23 39.41 -23 31.82 -23 24 C-15.41 24 -7.82 24 0 24 C0 16.08 0 8.16 0 0 Z " fill="#030202" transform="translate(1525,984)"/>
<path d="M0 0 C7.59 0 15.18 0 23 0 C23 7.59 23 15.18 23 23 C30.59 23 38.18 23 46 23 C46 30.59 46 38.18 46 46 C30.82 46 15.64 46 0 46 C0 30.82 0 15.64 0 0 Z " fill="#020302" transform="translate(963,1196)"/>
<path d="M0 0 C7.59 0 15.18 0 23 0 C23 22.77 23 45.54 23 69 C15.41 69 7.82 69 0 69 C0 46.23 0 23.46 0 0 Z " fill="#C28856" transform="translate(1385,563)"/>
<path d="M0 0 C7.59 0 15.18 0 23 0 C23 15.18 23 30.36 23 46 C7.82 46 -7.36 46 -23 46 C-23 38.41 -23 30.82 -23 23 C-15.41 23 -7.82 23 0 23 C0 15.41 0 7.82 0 0 Z " fill="#878687" transform="translate(1619,469)"/>
<path d="M0 0 C7.59 0 15.18 0 23 0 C23 22.77 23 45.54 23 69 C15.41 69 7.82 69 0 69 C0 46.23 0 23.46 0 0 Z " fill="#040303" transform="translate(939,305)"/>
<path d="M0 0 C15.18 0 30.36 0 46 0 C46 7.26 46 14.52 46 22 C38.41 22 30.82 22 23 22 C23 29.92 23 37.84 23 46 C15.41 46 7.82 46 0 46 C0 30.82 0 15.64 0 0 Z " fill="#020201" transform="translate(1596,446)"/>
<path d="M0 0 C15.18 0 30.36 0 46 0 C46 15.18 46 30.36 46 46 C38.41 46 30.82 46 23 46 C23 38.08 23 30.16 23 22 C15.41 22 7.82 22 0 22 C0 14.74 0 7.48 0 0 Z " fill="#020201" transform="translate(1174,446)"/>
<path d="M0 0 C7.26 0 14.52 0 22 0 C22 15.18 22 30.36 22 46 C6.82 46 -8.36 46 -24 46 C-23.67 38.41 -23.34 30.82 -23 23 C-15.41 23 -7.82 23 0 23 C0 15.41 0 7.82 0 0 Z " fill="#020302" transform="translate(1831,1196)"/>
<path d="M0 0 C22.77 0 45.54 0 69 0 C69 7.26 69 14.52 69 22 C46.23 22 23.46 22 0 22 C0 14.74 0 7.48 0 0 Z " fill="#040203" transform="translate(1784,282)"/>
<path d="M0 0 C22.77 0 45.54 0 69 0 C69 7.26 69 14.52 69 22 C46.23 22 23.46 22 0 22 C0 14.74 0 7.48 0 0 Z " fill="#040303" transform="translate(963,282)"/>
<path d="M0 0 C0.33 0 0.66 0 1 0 C1 92.73 1 185.46 1 281 C16.18 281 31.36 281 47 281 C47 296.51 47 312.02 47 328 C39.41 328 31.82 328 24 328 C24 312.82 24 297.64 24 282 C16.41 282 8.82 282 1 282 C1 304.77 1 327.54 1 351 C0.67 351 0.34 351 0 351 C0 235.17 0 119.34 0 0 Z " fill="#170F0A" transform="translate(1173,586)"/>
<path d="M0 0 C15.51 0 31.02 0 47 0 C47 0.33 47 0.66 47 1 C31.82 1 16.64 1 1 1 C1 8.26 1 15.52 1 23 C8.59 23 16.18 23 24 23 C24 23.33 24 23.66 24 24 C16.41 24 8.82 24 1 24 C1 39.18 1 54.36 1 70 C16.18 70 31.36 70 47 70 C47 70.33 47 70.66 47 71 C23.9 71 0.8 71 -23 71 C-23 63.41 -23 55.82 -23 48 C-30.59 48 -38.18 48 -46 48 C-46 55.26 -46 62.52 -46 70 C-46.33 70 -46.66 70 -47 70 C-47 62.41 -47 54.82 -47 47 C-39.08 47 -31.16 47 -23 47 C-23 39.08 -23 31.16 -23 23 C-15.41 23 -7.82 23 0 23 C0 15.41 0 7.82 0 0 Z " fill="#4C4745" transform="translate(1173,445)"/>
<path d="M0 0 C85.14 0 170.28 0 258 0 C258 0.33 258 0.66 258 1 C180.78 1 103.56 1 24 1 C24 16.18 24 31.36 24 47 C16.08 47 8.16 47 0 47 C0 31.49 0 15.98 0 0 Z " fill="#98673F" transform="translate(1290,492)"/>
<path d="M0 0 C3.958 -0.087 7.916 -0.14 11.875 -0.188 C13.003 -0.213 14.131 -0.238 15.293 -0.264 C15.831 -0.269 15.831 -0.269 18.555 -0.293 C19.052 -0.301 19.052 -0.301 21.57 -0.341 C22.372 -0.228 23.174 -0.116 24 0 C26.089 3.133 26.249 3.851 26.23 7.414 C26.229 8.257 26.227 9.1 26.225 9.969 C26.218 10.407 26.218 10.407 26.188 12.625 C26.187 13.509 26.186 14.394 26.186 15.305 C26.14 21.86 26.14 21.86 25 23 C24.842 24.779 24.749 26.563 24.684 28.348 C24.663 28.887 24.663 28.887 24.557 31.619 C24.517 32.755 24.478 33.892 24.438 35.062 C24.416 35.633 24.416 35.633 24.307 38.518 C24.2 41.345 24.1 44.172 24 47 C31.26 47 38.52 47 46 47 C46 39.74 46 32.48 46 25 C46.33 25 46.66 25 47 25 C47 32.59 47 40.18 47 48 C23.656 48.16 0.336 47.554 -23 47 C-23 39.41 -23 31.82 -23 24 C-7.617 23.899 7.633 24.277 23 25 C23 17.08 23 9.16 23 1 C15.41 1 7.82 1 0 1 C0 0.67 0 0.34 0 0 Z " fill="#5E1D28" transform="translate(1080,421)"/>
<path d="M0 0 C7.92 0 15.84 0 24 0 C24 7.59 24 15.18 24 23 C31.59 23 39.18 23 47 23 C47 30.92 47 38.84 47 47 C39.08 47 31.16 47 23 47 C23 39.08 23 31.16 23 23 C15.41 23 7.82 23 0 23 C0 15.41 0 7.82 0 0 Z " fill="#0D0D0D" transform="translate(1713,1008)"/>
<path d="M0 0 C7.59 0 15.18 0 23 0 C23 7.92 23 15.84 23 24 C15.41 24 7.82 24 0 24 C0 31.59 0 39.18 0 47 C-7.92 47 -15.84 47 -24 47 C-24 39.08 -24 31.16 -24 23 C-16.08 23 -8.16 23 0 23 C0 15.41 0 7.82 0 0 Z " fill="#0F1010" transform="translate(1080,1008)"/>
<path d="M0 0 C7.92 0 15.84 0 24 0 C24 15.51 24 31.02 24 47 C16.08 47 8.16 47 0 47 C0 31.49 0 15.98 0 0 Z " fill="#050201" transform="translate(1220,914)"/>
<path d="M0 0 C15.51 0 31.02 0 47 0 C47 7.92 47 15.84 47 24 C40.467 24.023 33.934 24.043 27.402 24.055 C25.177 24.06 22.953 24.067 20.729 24.075 C17.539 24.088 14.35 24.093 11.16 24.098 C10.66 24.1 10.66 24.1 8.127 24.113 C7.206 24.113 6.285 24.113 5.336 24.114 C4.929 24.115 4.929 24.115 2.867 24.12 C1 24 1 24 0 23 C0 15.41 0 7.82 0 0 Z " fill="#080505" transform="translate(1220,492)"/>
<path d="M0 0 C7.59 0 15.18 0 23 0 C23 7.59 23 15.18 23 23 C30.59 23 38.18 23 46 23 C46 30.92 46 38.84 46 47 C38.41 47 30.82 47 23 47 C23 39.41 23 31.82 23 24 C15.41 24 7.82 24 0 24 C0 16.08 0 8.16 0 0 Z " fill="#080808" transform="translate(1690,1078)"/>
<path d="M0 0 C15.51 0 31.02 0 47 0 C47 7.59 47 15.18 47 23 C31.49 23.33 15.98 23.66 0 24 C0 16.08 0 8.16 0 0 Z " fill="#000000" transform="translate(1314,867)"/>
<path d="M0 0 C7.59 0 15.18 0 23 0 C23 15.51 23 31.02 23 47 C15.41 47 7.82 47 0 47 C0 31.49 0 15.98 0 0 Z " fill="#040404" transform="translate(1784,1078)"/>
<path d="M0 0 C7.59 0 15.18 0 23 0 C23 15.51 23 31.02 23 47 C15.41 47 7.82 47 0 47 C0 31.49 0 15.98 0 0 Z " fill="#020202" transform="translate(1009,1078)"/>
<path d="M0 0 C7.59 0 15.18 0 23 0 C23 15.51 23 31.02 23 47 C15.41 47 7.82 47 0 47 C0 31.49 0 15.98 0 0 Z " fill="#030303" transform="translate(1291,820)"/>
<path d="M0 0 C7.59 0 15.18 0 23 0 C23 15.51 23 31.02 23 47 C15.41 47 7.82 47 0 47 C0 31.49 0 15.98 0 0 Z " fill="#020202" transform="translate(1502,820)"/>
<path d="M0 0 C15.51 0 31.02 0 47 0 C47 7.59 47 15.18 47 23 C31.49 23 15.98 23 0 23 C0 15.41 0 7.82 0 0 Z " fill="#040203" transform="translate(962,375)"/>
<path d="M0 0 C7.59 0 15.18 0 23 0 C23 15.51 23 31.02 23 47 C15.41 47 7.82 47 0 47 C0 31.49 0 15.98 0 0 Z " fill="#050302" transform="translate(1033,305)"/>
<path d="M0 0 C15.18 0 30.36 0 46 0 C46 7.59 46 15.18 46 23 C30.82 23 15.64 23 0 23 C0 15.41 0 7.82 0 0 Z " fill="#020202" transform="translate(1056,1172)"/>
<path d="M0 0 C7.59 0 15.18 0 23 0 C23 15.18 23 30.36 23 46 C15.41 46 7.82 46 0 46 C0 30.82 0 15.64 0 0 Z " fill="#030303" transform="translate(1291,680)"/>
<path d="M0 0 C15.51 0 31.02 0 47 0 C47 7.26 47 14.52 47 22 C31.49 22 15.98 22 0 22 C0 14.74 0 7.48 0 0 Z " fill="#040404" transform="translate(1760,1196)"/>
<path d="M0 0 C15.51 0 31.02 0 47 0 C47 7.26 47 14.52 47 22 C31.49 22 15.98 22 0 22 C0 14.74 0 7.48 0 0 Z " fill="#030202" transform="translate(1549,493)"/>
<path d="M0 0 C7.26 0 14.52 0 22 0 C22 15.18 22 30.36 22 46 C14.74 46 7.48 46 0 46 C0 30.82 0 15.64 0 0 Z " fill="#040202" transform="translate(1761,305)"/>
<path d="M0 0 C23.1 0 46.2 0 70 0 C70 0.33 70 0.66 70 1 C47.23 1 24.46 1 1 1 C1 108.58 1 216.16 1 327 C1.66 326.67 2.32 326.34 3 326 C8.94 325.67 14.88 325.34 21 325 C21 233.26 21 141.52 21 47 C21.66 47 22.32 47 23 47 C23 139.73 23 232.46 23 328 C15.41 328 7.82 328 0 328 C0 219.76 0 111.52 0 0 Z " fill="#A78063" transform="translate(1150,539)"/>
<path d="M0 0 C0.33 0 0.66 0 1 0 C1 23.1 1 46.2 1 70 C8.59 70 16.18 70 24 70 C24 85.51 24 101.02 24 117 C23.67 117 23.34 117 23 117 C23 101.82 23 86.64 23 71 C15.74 71 8.48 71 1 71 C1 78.59 1 86.18 1 94 C-6.59 94 -14.18 94 -22 94 C-22 101.26 -22 108.52 -22 116 C-22.33 116 -22.66 116 -23 116 C-23 108.74 -23 101.48 -23 94 C-38.51 94 -54.02 94 -70 94 C-70 93.67 -70 93.34 -70 93 C-54.49 93 -38.98 93 -23 93 C-23 85.74 -23 78.48 -23 71 C-54.02 71 -85.04 71 -117 71 C-117 70.67 -117 70.34 -117 70 C-78.39 70 -39.78 70 0 70 C0 46.9 0 23.8 0 0 Z " fill="#545455" transform="translate(1830,1125)"/>
<path d="M0 0 C15.735 -0.074 31.307 -0.092 47 1 C47 8.26 47 15.52 47 23 C62.51 23 78.02 23 94 23 C94 23.33 94 23.66 94 24 C70.9 24 47.8 24 24 24 C24 16.41 24 8.82 24 1 C16.41 1 8.82 1 1 1 C1 16.18 1 31.36 1 47 C16.18 47 31.36 47 47 47 C47 47.33 47 47.66 47 48 C31.49 48 15.98 48 0 48 C0 32.16 0 16.32 0 0 Z " fill="#575757" transform="translate(962,1195)"/>
<path d="M0 0 C7.92 0 15.84 0 24 0 C24 54.12 24 108.24 24 164 C8.16 164 -7.68 164 -24 164 C-24 110.54 -24 57.08 -24 2 C-23.67 2 -23.34 2 -23 2 C-23 55.13 -23 108.26 -23 163 C-15.41 162.67 -7.82 162.34 0 162 C7.26 162 14.52 162 22 162 C21.67 109.53 21.34 57.06 21 3 C14.07 2.67 7.14 2.34 0 2 C0 1.34 0 0.68 0 0 Z " fill="#88674C" transform="translate(1408,914)"/>
<path d="M0 0 C7.92 0 15.84 0 24 0 C24 7.92 24 15.84 24 24 C16.08 24 8.16 24 0 24 C0 16.08 0 8.16 0 0 Z " fill="#A36E46" transform="translate(1079,422)"/>
<path d="M0 0 C0.958 0.005 1.917 0.01 2.904 0.016 C3.835 0.018 4.767 0.021 5.727 0.023 C6.322 0.028 6.322 0.028 9.338 0.051 C13.112 0.072 16.886 0.092 20.775 0.114 C20.775 8.034 20.775 15.954 20.775 24.114 C17.001 24.134 13.226 24.155 9.338 24.176 C8.146 24.185 6.954 24.194 5.727 24.204 C5.261 24.205 5.261 24.205 2.904 24.211 C1.946 24.216 0.987 24.222 0 24.227 C-2.225 24.114 -2.225 24.114 -3.225 23.114 C-3.324 21.491 -3.356 19.864 -3.358 18.239 C-3.359 17.254 -3.36 16.269 -3.362 15.254 C-3.358 14.218 -3.354 13.181 -3.35 12.114 C-3.352 11.595 -3.352 11.595 -3.362 8.973 C-3.36 7.988 -3.359 7.003 -3.358 5.989 C-3.357 5.078 -3.355 4.168 -3.354 3.231 C-3.175 0.298 -2.938 0.15 0 0 Z " fill="#070707" transform="translate(1739.224853515625,1124.886474609375)"/>
<path d="M0 0 C7.92 0 15.84 0 24 0 C24 7.59 24 15.18 24 23 C16.08 23 8.16 23 0 23 C0 15.41 0 7.82 0 0 Z " fill="#030303" transform="translate(1126,1125)"/>
<path d="M0 0 C7.92 0 15.84 0 24 0 C24 7.59 24 15.18 24 23 C16.08 23 8.16 23 0 23 C0 15.41 0 7.82 0 0 Z " fill="#020202" transform="translate(1666,1125)"/>
<path d="M0 0 C7.59 0 15.18 0 23 0 C23 7.92 23 15.84 23 24 C15.41 24 7.82 24 0 24 C0 16.08 0 8.16 0 0 Z " fill="#050606" transform="translate(1103,1078)"/>
<path d="M0 0 C7.59 0 15.18 0 23 0 C23 7.92 23 15.84 23 24 C15.41 24 7.82 24 0 24 C0 16.08 0 8.16 0 0 Z " fill="#060606" transform="translate(1643,1031)"/>
<path d="M0 0 C7.92 0 15.84 0 24 0 C24 7.59 24 15.18 24 23 C16.08 23 8.16 23 0 23 C0 15.41 0 7.82 0 0 Z " fill="#060404" transform="translate(1478,1031)"/>
<path d="M0 0 C7.59 0 15.18 0 23 0 C23 7.92 23 15.84 23 24 C15.41 24 7.82 24 0 24 C0 16.08 0 8.16 0 0 Z " fill="#020000" transform="translate(1080,468)"/>
<path d="M0 0 C7.59 0 15.18 0 23 0 C23 7.59 23 15.18 23 23 C15.41 23 7.82 23 0 23 C0 15.41 0 7.82 0 0 Z " fill="#000100" transform="translate(1713,1102)"/>
<path d="M0 0 C7.59 0 15.18 0 23 0 C23 7.59 23 15.18 23 23 C15.41 23 7.82 23 0 23 C0 15.41 0 7.82 0 0 Z " fill="#060707" transform="translate(1643,1102)"/>
<path d="M0 0 C7.59 0 15.18 0 23 0 C23 7.59 23 15.18 23 23 C15.41 23 7.82 23 0 23 C0 15.41 0 7.82 0 0 Z " fill="#060606" transform="translate(1150,1102)"/>
<path d="M0 0 C7.59 0 15.18 0 23 0 C23 7.59 23 15.18 23 23 C15.41 23 7.82 23 0 23 C0 15.41 0 7.82 0 0 Z " fill="#010101" transform="translate(1080,1102)"/>
<path d="M0 0 C7.59 0 15.18 0 23 0 C23 7.59 23 15.18 23 23 C15.41 23 7.82 23 0 23 C0 15.41 0 7.82 0 0 Z " fill="#010101" transform="translate(1173,1078)"/>
<path d="M0 0 C7.59 0 15.18 0 23 0 C23 7.59 23 15.18 23 23 C15.41 23 7.82 23 0 23 C0 15.41 0 7.82 0 0 Z " fill="#070807" transform="translate(1760,1055)"/>
<path d="M0 0 C7.59 0 15.18 0 23 0 C23 7.59 23 15.18 23 23 C15.41 23 7.82 23 0 23 C0 15.41 0 7.82 0 0 Z " fill="#000000" transform="translate(1666,1055)"/>
<path d="M0 0 C7.59 0 15.18 0 23 0 C23 7.59 23 15.18 23 23 C15.41 23 7.82 23 0 23 C0 15.41 0 7.82 0 0 Z " fill="#050506" transform="translate(1596,1055)"/>
<path d="M0 0 C7.59 0 15.18 0 23 0 C23 7.59 23 15.18 23 23 C15.41 23 7.82 23 0 23 C0 15.41 0 7.82 0 0 Z " fill="#030202" transform="translate(1455,1055)"/>
<path d="M0 0 C7.59 0 15.18 0 23 0 C23 7.59 23 15.18 23 23 C15.41 23 7.82 23 0 23 C0 15.41 0 7.82 0 0 Z " fill="#040404" transform="translate(1197,1055)"/>
<path d="M0 0 C7.59 0 15.18 0 23 0 C23 7.59 23 15.18 23 23 C15.41 23 7.82 23 0 23 C0 15.41 0 7.82 0 0 Z " fill="#000000" transform="translate(1127,1055)"/>
<path d="M0 0 C7.59 0 15.18 0 23 0 C23 7.59 23 15.18 23 23 C15.41 23 7.82 23 0 23 C0 15.41 0 7.82 0 0 Z " fill="#060707" transform="translate(1033,1055)"/>
<path d="M0 0 C7.59 0 15.18 0 23 0 C23 7.59 23 15.18 23 23 C15.41 23 7.82 23 0 23 C0 15.41 0 7.82 0 0 Z " fill="#050504" transform="translate(1103,985)"/>
<path d="M0 0 C7.59 0 15.18 0 23 0 C23 7.59 23 15.18 23 23 C15.41 23 7.82 23 0 23 C0 15.41 0 7.82 0 0 Z " fill="#010000" transform="translate(1549,961)"/>
<path d="M0 0 C7.59 0 15.18 0 23 0 C23 7.59 23 15.18 23 23 C15.41 23 7.82 23 0 23 C0 15.41 0 7.82 0 0 Z " fill="#050302" transform="translate(1244,961)"/>
<path d="M0 0 C7.59 0 15.18 0 23 0 C23 7.59 23 15.18 23 23 C15.41 23 7.82 23 0 23 C0 15.41 0 7.82 0 0 Z " fill="#4F4E4E" transform="translate(1291,797)"/>
<path d="M0 0 C7.59 0 15.18 0 23 0 C23 7.59 23 15.18 23 23 C15.41 23 7.82 23 0 23 C0 15.41 0 7.82 0 0 Z " fill="#978D84" transform="translate(1573,609)"/>
<path d="M0 0 C7.59 0 15.18 0 23 0 C23 7.59 23 15.18 23 23 C15.41 23 7.82 23 0 23 C0 15.41 0 7.82 0 0 Z " fill="#998D85" transform="translate(1220,609)"/>
<path d="M0 0 C7.59 0 15.18 0 23 0 C23 7.59 23 15.18 23 23 C15.41 23 7.82 23 0 23 C0 15.41 0 7.82 0 0 Z " fill="#505050" transform="translate(1642,492)"/>
<path d="M0 0 C7.59 0 15.18 0 23 0 C23 7.59 23 15.18 23 23 C15.41 23 7.82 23 0 23 C0 15.41 0 7.82 0 0 Z " fill="#010000" transform="translate(1713,469)"/>
<path d="M0 0 C7.59 0 15.18 0 23 0 C23 7.59 23 15.18 23 23 C15.41 23 7.82 23 0 23 C0 15.41 0 7.82 0 0 Z " fill="#060504" transform="translate(1150,469)"/>
<path d="M0 0 C7.59 0 15.18 0 23 0 C23 7.59 23 15.18 23 23 C15.41 23 7.82 23 0 23 C0 15.41 0 7.82 0 0 Z " fill="#070404" transform="translate(1737,445)"/>
<path d="M0 0 C7.59 0 15.18 0 23 0 C23 7.59 23 15.18 23 23 C15.41 23 7.82 23 0 23 C0 15.41 0 7.82 0 0 Z " fill="#A66E40" transform="translate(1713,422)"/>
<path d="M0 0 C7.59 0 15.18 0 23 0 C23 7.59 23 15.18 23 23 C15.41 23 7.82 23 0 23 C0 15.41 0 7.82 0 0 Z " fill="#010000" transform="translate(1760,422)"/>
<path d="M0 0 C7.59 0 15.18 0 23 0 C23 7.59 23 15.18 23 23 C15.41 23 7.82 23 0 23 C0 15.41 0 7.82 0 0 Z " fill="#571A23" transform="translate(1737,422)"/>
<path d="M0 0 C7.59 0 15.18 0 23 0 C23 7.59 23 15.18 23 23 C15.41 23 7.82 23 0 23 C0 15.41 0 7.82 0 0 Z " fill="#040101" transform="translate(1033,422)"/>
<path d="M0 0 C7.59 0 15.18 0 23 0 C23 7.59 23 15.18 23 23 C15.41 23 7.82 23 0 23 C0 15.41 0 7.82 0 0 Z " fill="#9B6B48" transform="translate(1737,399)"/>
<path d="M0 0 C7.59 0 15.18 0 23 0 C23 7.59 23 15.18 23 23 C15.41 23 7.82 23 0 23 C0 15.41 0 7.82 0 0 Z " fill="#9B6945" transform="translate(1056,399)"/>
<path d="M0 0 C7.59 0 15.18 0 23 0 C23 7.59 23 15.18 23 23 C15.41 23 7.82 23 0 23 C0 15.41 0 7.82 0 0 Z " fill="#AD7546" transform="translate(1760,375)"/>
<path d="M0 0 C7.59 0 15.18 0 23 0 C23 7.59 23 15.18 23 23 C15.41 23 7.82 23 0 23 C0 15.41 0 7.82 0 0 Z " fill="#AC7545" transform="translate(1033,375)"/>
<path d="M0 0 C7.59 0 15.18 0 23 0 C23 7.59 23 15.18 23 23 C15.41 23 7.82 23 0 23 C0 15.41 0 7.82 0 0 Z " fill="#581C23" transform="translate(1033,352)"/>
<path d="M0 0 C7.59 0 15.18 0 23 0 C23 7.59 23 15.18 23 23 C15.41 23 7.82 23 0 23 C0 15.41 0 7.82 0 0 Z " fill="#D2996A" transform="translate(1807,305)"/>
<path d="M0 0 C7.59 0 15.18 0 23 0 C23 7.59 23 15.18 23 23 C15.41 23 7.82 23 0 23 C0 15.41 0 7.82 0 0 Z " fill="#D19A6C" transform="translate(986,305)"/>
<path d="M0 0 C7.92 0 15.84 0 24 0 C24 7.26 24 14.52 24 22 C16.08 22 8.16 22 0 22 C0 14.74 0 7.48 0 0 Z " fill="#D49E71" transform="translate(1478,493)"/>
<path d="M0 0 C7.59 0 15.18 0 23 0 C23 7.26 23 14.52 23 22 C15.41 22 7.82 22 0 22 C0 14.74 0 7.48 0 0 Z " fill="#030403" transform="translate(1103,1149)"/>
<path d="M0 0 C7.59 0 15.18 0 23 0 C23 7.26 23 14.52 23 22 C15.41 22 7.82 22 0 22 C0 14.74 0 7.48 0 0 Z " fill="#030404" transform="translate(1056,1126)"/>
<path d="M0 0 C7.26 0 14.52 0 22 0 C22 7.59 22 15.18 22 23 C14.74 23 7.48 23 0 23 C0 15.41 0 7.82 0 0 Z " fill="#000000" transform="translate(1620,1078)"/>
<path d="M0 0 C7.59 0 15.18 0 23 0 C23 7.26 23 14.52 23 22 C15.41 22 7.82 22 0 22 C0 14.74 0 7.48 0 0 Z " fill="#040504" transform="translate(1690,985)"/>
<path d="M0 0 C7.59 0 15.18 0 23 0 C23 7.26 23 14.52 23 22 C15.41 22 7.82 22 0 22 C0 14.74 0 7.48 0 0 Z " fill="#060404" transform="translate(1737,493)"/>
<path d="M0 0 C7.59 0 15.18 0 23 0 C23 7.26 23 14.52 23 22 C15.41 22 7.82 22 0 22 C0 14.74 0 7.48 0 0 Z " fill="#080505" transform="translate(1056,493)"/>
<path d="M0 0 C7.26 0 14.52 0 22 0 C22 7.59 22 15.18 22 23 C14.74 23 7.48 23 0 23 C0 15.41 0 7.82 0 0 Z " fill="#070504" transform="translate(1643,469)"/>
<path d="M0 0 C7.26 0 14.52 0 22 0 C22 7.59 22 15.18 22 23 C14.74 23 7.48 23 0 23 C0 15.41 0 7.82 0 0 Z " fill="#060303" transform="translate(1057,445)"/>
<path d="M0 0 C7.26 0 14.52 0 22 0 C22 7.59 22 15.18 22 23 C14.74 23 7.48 23 0 23 C0 15.41 0 7.82 0 0 Z " fill="#070505" transform="translate(1784,398)"/>
<path d="M0 0 C7.26 0 14.52 0 22 0 C22 7.26 22 14.52 22 22 C14.74 22 7.48 22 0 22 C0 14.74 0 7.48 0 0 Z " fill="#030303" transform="translate(1737,1032)"/>
<path d="M0 0 C7.26 0 14.52 0 22 0 C22 7.26 22 14.52 22 22 C14.74 22 7.48 22 0 22 C0 14.74 0 7.48 0 0 Z " fill="#010101" transform="translate(1057,1032)"/>
<path d="M0 0 C6.93 0 13.86 0 21 0 C22.2 2.401 22.115 3.894 22.098 6.57 C22.095 7.377 22.093 8.185 22.09 9.016 C22.081 10.042 22.072 11.068 22.062 12.125 C22.042 15.384 22.021 18.642 22 22 C14.74 22 7.48 22 0 22 C0 14.74 0 7.48 0 0 Z " fill="#070304" transform="translate(1010,399)"/>
<path d="M0 0 C0.402 0.002 0.402 0.002 2.438 0.015 C2.947 0.024 2.947 0.024 5.52 0.07 C8.758 0.112 11.996 0.153 15.332 0.195 C15.332 7.455 15.332 14.715 15.332 22.195 C12.094 22.092 8.856 21.989 5.52 21.883 C4.503 21.858 3.486 21.833 2.438 21.807 C2.036 21.791 2.036 21.791 0 21.707 C-0.411 21.694 -0.411 21.694 -2.491 21.628 C-5.166 21.096 -6.076 20.39 -7.668 18.195 C-7.966 15.414 -8.087 12.908 -8.043 10.133 C-8.055 9.4 -8.066 8.667 -8.078 7.912 C-8.066 5.785 -8.066 5.785 -7.668 2.195 C-4.464 0.059 -3.672 -0.047 0 0 Z " fill="#682028" transform="translate(1017.66796875,375.8046875)"/>
<path d="M0 0 C7.26 0 14.52 0 22 0 C22 7.26 22 14.52 22 22 C14.74 21.67 7.48 21.34 0 21 C0 14.07 0 7.14 0 0 Z " fill="#030100" transform="translate(1784,352)"/>
<path d="M0 0 C7.92 0 15.84 0 24 0 C24 0.33 24 0.66 24 1 C23.702 1.013 23.702 1.013 22.196 1.076 C19.505 1.192 16.815 1.315 14.125 1.438 C13.188 1.477 12.251 1.516 11.285 1.557 C10.837 1.578 10.837 1.578 8.57 1.684 C8.157 1.702 8.157 1.702 6.063 1.795 C4 2 4 2 2 3 C1.946 5.625 1.906 8.249 1.875 10.875 C1.858 11.621 1.841 12.368 1.824 13.137 C1.807 15.092 1.897 17.047 2 19 C9.23 26.23 35.572 22.403 45.375 22.562 C47.865 22.606 50.354 22.649 52.844 22.693 C58.896 22.8 64.948 22.9 71 23 C71 30.92 71 38.84 71 47 C70.67 47 70.34 47 70 47 C70 39.41 70 31.82 70 24 C62.41 24 54.82 24 47 24 C47 31.59 47 39.18 47 47 C39.41 47 31.82 47 24 47 C24 54.59 24 62.18 24 70 C23.67 70 23.34 70 23 70 C23 62.41 23 54.82 23 47 C15.41 47 7.82 47 0 47 C0 39.41 0 31.82 0 24 C-15.51 24 -31.02 24 -47 24 C-47 23.67 -47 23.34 -47 23 C-31.49 23 -15.98 23 0 23 C0 15.41 0 7.82 0 0 Z M1 24 C1 31.26 1 38.52 1 46 C8.26 46 15.52 46 23 46 C23.021 42.741 23.041 39.483 23.062 36.125 C23.072 35.099 23.081 34.073 23.09 33.016 C23.093 32.209 23.095 31.402 23.098 30.57 C23.103 29.743 23.108 28.915 23.114 28.063 C23 26 23 26 22 24 C15.07 24 8.14 24 1 24 Z M24 25 C24 31.93 24 38.86 24 46 C31.26 46 38.52 46 46 46 C46.021 42.906 46.041 39.812 46.062 36.625 C46.072 35.651 46.081 34.678 46.09 33.674 C46.093 32.908 46.095 32.141 46.098 31.352 C46.103 30.566 46.108 29.781 46.114 28.971 C46 27 46 27 45 25 C38.07 25 31.14 25 24 25 Z " fill="#5C3B3A" transform="translate(1009,375)"/>
<path d="M0 0 C7.26 0 14.52 0 22 0 C22 15.18 22 30.36 22 46 C21.67 46 21.34 46 21 46 C21 31.15 21 16.3 21 1 C14.4 1 7.8 1 1 1 C1.072 2.748 1.144 4.496 1.219 6.297 C2.001 26.539 2.114 46.745 2 67 C2.626 66.99 3.251 66.979 3.896 66.968 C6.722 66.927 9.549 66.901 12.375 66.875 C13.36 66.858 14.345 66.841 15.359 66.824 C15.83 66.821 15.83 66.821 18.211 66.805 C18.646 66.799 18.646 66.799 20.845 66.773 C23 67 23 67 25 69 C25.241 70.949 25.241 70.949 25.227 73.358 C25.227 74.259 25.227 75.159 25.227 76.088 C25.216 77.062 25.206 78.036 25.195 79.039 C25.192 80.035 25.19 81.031 25.187 82.057 C25.176 85.247 25.15 88.436 25.125 91.625 C25.115 93.784 25.106 95.943 25.098 98.102 C25.077 103.401 25.038 108.7 25 114 C31.93 114 38.86 114 46 114 C46.33 114.66 46.66 115.32 47 116 C39.08 116 31.16 116 23 116 C23 100.49 23 84.98 23 69 C15.41 69 7.82 69 0 69 C0 46.23 0 23.46 0 0 Z " fill="#C19370" transform="translate(1174,868)"/>
<path d="M0 0 C0.33 0 0.66 0 1 0 C1 23.43 1 46.86 1 71 C8.59 71 16.18 71 24 71 C24 78.59 24 86.18 24 94 C31.26 94 38.52 94 46 94 C46 78.82 46 63.64 46 48 C38.74 48 31.48 48 24 48 C24 47.67 24 47.34 24 47 C31.59 47 39.18 47 47 47 C47 62.51 47 78.02 47 94 C54.59 94 62.18 94 70 94 C70 94.33 70 94.66 70 95 C54.49 95 38.98 95 23 95 C23 87.41 23 79.82 23 72 C7.82 72 -7.36 72 -23 72 C-23 79.26 -23 86.52 -23 94 C-15.41 94 -7.82 94 0 94 C0 94.33 0 94.66 0 95 C-7.59 95 -15.18 95 -23 95 C-23 102.59 -23 110.18 -23 118 C-23.33 118 -23.66 118 -24 118 C-24 110.41 -24 102.82 -24 95 C-31.59 95 -39.18 95 -47 95 C-47 94.67 -47 94.34 -47 94 C-39.41 94 -31.82 94 -24 94 C-24 86.41 -24 78.82 -24 71 C-16.08 71 -8.16 71 0 71 C0 47.57 0 24.14 0 0 Z " fill="#322823" transform="translate(1150,890)"/>
<path d="M0 0 C23.43 0 46.86 0 71 0 C71 7.59 71 15.18 71 23 C78.59 23 86.18 23 94 23 C94 23.33 94 23.66 94 24 C86.41 24 78.82 24 71 24 C71 46.77 71 69.54 71 93 C70.67 93 70.34 93 70 93 C70 70.23 70 47.46 70 24 C47.23 24 24.46 24 1 24 C1 39.18 1 54.36 1 70 C0.67 70 0.34 70 0 70 C0 54.82 0 39.64 0 24 C-7.59 24 -15.18 24 -23 24 C-23 23.67 -23 23.34 -23 23 C-15.41 23 -7.82 23 0 23 C0 15.41 0 7.82 0 0 Z M1 1 C1 8.26 1 15.52 1 23 C23.77 23 46.54 23 70 23 C70 15.74 70 8.48 70 1 C47.23 1 24.46 1 1 1 Z " fill="#574741" transform="translate(1783,281)"/>
<path d="M0 0 C15.51 0 31.02 0 47 0 C47 7.92 47 15.84 47 24 C39.08 23.67 31.16 23.34 23 23 C23 30.59 23 38.18 23 46 C15.41 46 7.82 46 0 46 C0 45.67 0 45.34 0 45 C6.93 45 13.86 45 21 45 C20.977 43.435 20.954 41.87 20.93 40.258 C20.911 38.214 20.893 36.169 20.875 34.125 C20.858 33.092 20.841 32.06 20.824 30.996 C20.821 30.503 20.821 30.503 20.805 28.008 C20.799 27.552 20.799 27.552 20.773 25.247 C21 23 21 23 23 21 C30.668 19.495 37.487 20.122 45 22 C45 15.4 45 8.8 45 2 C30.81 2 16.62 2 2 2 C2.062 12.875 2.062 12.875 2.09 16.3 C2.093 17.189 2.095 18.077 2.098 18.992 C2.1 19.448 2.1 19.448 2.114 21.753 C2 24 2 24 1 26 C-6.59 26 -14.18 26 -22 26 C-22 25.67 -22 25.34 -22 25 C-14.63 23.783 -7.475 23.934 0 24 C0 16.08 0 8.16 0 0 Z " fill="#906A4F" transform="translate(1502,1031)"/>
<path d="M0 0 C23.43 0 46.86 0 71 0 C71 7.59 71 15.18 71 23 C78.59 23 86.18 23 94 23 C94 23.33 94 23.66 94 24 C86.41 24 78.82 24 71 24 C71 39.51 71 55.02 71 71 C63.08 71 55.16 71 47 71 C47 70.67 47 70.34 47 70 C54.59 70 62.18 70 70 70 C70 54.82 70 39.64 70 24 C39.31 24 8.62 24 -23 24 C-23 23.67 -23 23.34 -23 23 C-15.41 23 -7.82 23 0 23 C0 15.41 0 7.82 0 0 Z M1 1 C1 8.26 1 15.52 1 23 C23.77 23 46.54 23 70 23 C70 15.74 70 8.48 70 1 C47.23 1 24.46 1 1 1 Z " fill="#4D3E3B" transform="translate(962,281)"/>
<path d="M0 0 C7.59 0 15.18 0 23 0 C23 7.92 23 15.84 23 24 C30.59 24 38.18 24 46 24 C46 31.59 46 39.18 46 47 C53.92 47 61.84 47 70 47 C70 62.18 70 77.36 70 93 C62.41 93 54.82 93 47 93 C47 85.41 47 77.82 47 70 C47.33 70 47.66 70 48 70 C48 77.26 48 84.52 48 92 C51.3 91.835 51.3 91.835 68 91 C68 76.81 68 62.62 68 48 C60.41 48 52.82 48 45 48 C44.67 40.41 44.34 32.82 44 25 C36.74 25 29.48 25 22 25 C20.774 22.547 20.886 20.949 20.902 18.211 C20.905 17.363 20.907 16.515 20.91 15.642 C20.919 14.564 20.928 13.486 20.938 12.375 C20.958 8.951 20.979 5.527 21 2 C14.07 2 7.14 2 0 2 C0 1.34 0 0.68 0 0 Z " fill="#977158" transform="translate(1690,469)"/>
<path d="M0 0 C7.92 0 15.84 0 24 0 C24 7.59 24 15.18 24 23 C39.18 23 54.36 23 70 23 C70 15.41 70 7.82 70 0 C70.33 0 70.66 0 71 0 C71 7.59 71 15.18 71 23 C78.59 23 86.18 23 94 23 C94 23.33 94 23.66 94 24 C86.41 24 78.82 24 71 24 C71 31.59 71 39.18 71 47 C78.59 47 86.18 47 94 47 C94 47.33 94 47.66 94 48 C86.41 48 78.82 48 71 48 C71 55.26 71 62.52 71 70 C86.18 70 101.36 70 117 70 C117 70.33 117 70.66 117 71 C101.49 71 85.98 71 70 71 C70 63.41 70 55.82 70 48 C62.41 48 54.82 48 47 48 C47 47.67 47 47.34 47 47 C54.59 47 62.18 47 70 47 C70 39.41 70 31.82 70 24 C54.49 24 38.98 24 23 24 C23 16.41 23 8.82 23 1 C15.41 1 7.82 1 0 1 C0 0.67 0 0.34 0 0 Z " fill="#462C26" transform="translate(1666,445)"/>
<path d="M0 0 C0.165 0.66 0.165 0.66 1 4 C-6.26 4 -13.52 4 -21 4 C-21 11.92 -21 19.84 -21 28 C-36.18 28 -51.36 28 -67 28 C-67 35.59 -67 43.18 -67 51 C-74.92 51 -82.84 51 -91 51 C-91 50.34 -91 49.68 -91 49 C-83.74 48.67 -76.48 48.34 -69 48 C-69.062 37.562 -69.062 37.562 -69.09 34.268 C-69.093 33.418 -69.095 32.567 -69.098 31.691 C-69.1 31.254 -69.1 31.254 -69.114 29.041 C-69 27 -69 27 -68 26 C-66.557 25.907 -65.11 25.883 -63.664 25.886 C-63.203 25.887 -63.203 25.887 -60.873 25.887 C-59.872 25.892 -58.871 25.897 -57.84 25.902 C-56.82 25.904 -55.801 25.905 -54.75 25.907 C-51.479 25.912 -48.208 25.925 -44.938 25.938 C-42.726 25.943 -40.514 25.947 -38.303 25.951 C-32.868 25.961 -27.434 25.981 -22 26 C-22 18.41 -22 10.82 -22 3 C-19.599 1.8 -18.106 1.885 -15.43 1.902 C-14.534 1.906 -13.638 1.909 -12.715 1.912 C-11.778 1.92 -10.841 1.929 -9.875 1.938 C-8.93 1.942 -7.985 1.947 -7.012 1.951 C-4.674 1.963 -2.337 1.979 0 2 C0 1.34 0 0.68 0 0 Z " fill="#956D52" transform="translate(1499,1097)"/>
<path d="M0 0 C22.77 0 45.54 0 69 0 C69 7.59 69 15.18 69 23 C68.67 23 68.34 23 68 23 C68 16.07 68 9.14 68 2 C46.22 2 24.44 2 2 2 C2 8.6 2 15.2 2 22 C15.86 22 29.72 22 44 22 C44 22.33 44 22.66 44 23 C29.48 23 14.96 23 0 23 C0 15.41 0 7.82 0 0 Z " fill="#BD9172" transform="translate(1596,422)"/>
<path d="M0 0 C7.92 0 15.84 0 24 0 C24 0.66 24 1.32 24 2 C16.74 2 9.48 2 2 2 C2 54.8 2 107.6 2 162 C9.26 162 16.52 162 24 162 C24 162.33 24 162.66 24 163 C16.41 163 8.82 163 1 163 C0.67 109.21 0.34 55.42 0 0 Z " fill="#C39772" transform="translate(1384,914)"/>
<path d="M0 0 C1 0.005 2 0.01 3.031 0.016 C4.111 0.019 5.19 0.022 6.302 0.026 C6.871 0.03 6.871 0.03 9.746 0.051 C10.316 0.053 10.316 0.053 13.201 0.065 C16.028 0.077 18.856 0.093 21.683 0.114 C21.683 0.774 21.683 1.434 21.683 2.114 C14.093 2.114 6.503 2.114 -1.317 2.114 C-1.317 9.704 -1.317 17.294 -1.317 25.114 C-10.279 25.159 -19.24 25.195 -28.202 25.217 C-32.364 25.228 -36.525 25.242 -40.686 25.264 C-44.699 25.286 -48.713 25.298 -52.726 25.303 C-54.26 25.307 -55.793 25.314 -57.327 25.325 C-59.47 25.339 -61.612 25.342 -63.756 25.341 C-64.366 25.343 -64.366 25.343 -67.457 25.354 C-70.317 25.114 -70.317 25.114 -72.317 23.114 C-49.547 23.114 -26.777 23.114 -3.317 23.114 C-3.317 15.854 -3.317 8.594 -3.317 1.114 C-2.317 0.114 -2.317 0.114 0 0 Z " fill="#C1936E" transform="translate(1268.316650390625,536.886474609375)"/>
<path d="M0 0 C7.26 0 14.52 0 22 0 C22 0.33 22 0.66 22 1 C15.07 1 8.14 1 1 1 C1.012 2.649 1.023 4.297 1.035 5.996 C1.045 8.143 1.054 10.29 1.062 12.438 C1.071 13.526 1.079 14.615 1.088 15.736 C1.091 16.771 1.094 17.805 1.098 18.871 C1.103 19.829 1.108 20.788 1.114 21.775 C1 24 1 24 0 25 C-1.486 25.157 -2.979 25.251 -4.473 25.316 C-5.372 25.358 -6.271 25.4 -7.197 25.443 C-8.143 25.483 -9.088 25.522 -10.062 25.562 C-11.012 25.606 -11.961 25.649 -12.939 25.693 C-15.293 25.8 -17.646 25.902 -20 26 C-20.025 26.631 -20.05 27.262 -20.076 27.912 C-20.192 30.754 -20.314 33.596 -20.438 36.438 C-20.477 37.431 -20.516 38.424 -20.557 39.447 C-20.599 40.392 -20.64 41.336 -20.684 42.309 C-20.72 43.183 -20.757 44.058 -20.795 44.959 C-21 47 -21 47 -22 48 C-23.781 48.087 -25.565 48.107 -27.348 48.098 C-28.427 48.094 -29.507 48.091 -30.619 48.088 C-31.755 48.08 -32.892 48.071 -34.062 48.062 C-35.203 48.058 -36.343 48.053 -37.518 48.049 C-40.345 48.037 -43.173 48.019 -46 48 C-46 55.26 -46 62.52 -46 70 C-30.82 70 -15.64 70 0 70 C0 70.33 0 70.66 0 71 C-15.51 71 -31.02 71 -47 71 C-47 63.08 -47 55.16 -47 47 C-39.08 47 -31.16 47 -23 47 C-23 39.08 -23 31.16 -23 23 C-15.41 23 -7.82 23 0 23 C0 15.41 0 7.82 0 0 Z " fill="#39251C" transform="translate(1525,1054)"/>
<path d="M0 0 C7.92 0 15.84 0 24 0 C24 0.33 24 0.66 24 1 C23.399 1.05 22.799 1.1 22.18 1.152 C19.473 1.383 16.768 1.629 14.062 1.875 C13.117 1.954 12.171 2.032 11.197 2.113 C10.298 2.197 9.399 2.281 8.473 2.367 C8.056 2.404 8.056 2.404 5.949 2.589 C5.306 2.725 4.663 2.86 4 3 C2.392 6.217 2.858 9.722 2.867 13.254 C2.867 13.662 2.867 13.662 2.864 15.727 C2.864 17.453 2.865 19.178 2.87 20.904 C2.875 23.555 2.87 26.206 2.863 28.857 C2.864 30.531 2.865 32.205 2.867 33.879 C2.865 34.677 2.863 35.475 2.861 36.297 C2.885 41.885 2.885 41.885 4 43 C5.343 43.086 6.69 43.107 8.035 43.098 C8.764 43.095 9.492 43.093 10.242 43.09 C11.173 43.081 12.104 43.072 13.062 43.062 C16.012 43.042 18.961 43.021 22 43 C22 36.4 22 29.8 22 23 C22.33 23 22.66 23 23 23 C23 30.59 23 38.18 23 46 C15.41 46 7.82 46 0 46 C0 30.82 0 15.64 0 0 Z " fill="#987255" transform="translate(1056,516)"/>
<path d="M0 0 C0.33 0 0.66 0 1 0 C1 15.18 1 30.36 1 46 C8.59 46 16.18 46 24 46 C24 61.51 24 77.02 24 93 C31.92 93 39.84 93 48 93 C48 93.33 48 93.66 48 94 C43.854 94.029 39.708 94.047 35.562 94.062 C34.378 94.071 33.194 94.079 31.975 94.088 C30.85 94.091 29.725 94.094 28.566 94.098 C28.045 94.1 28.045 94.1 25.408 94.114 C23 94 23 94 22 93 C21.907 91.588 21.883 90.171 21.886 88.756 C21.887 87.855 21.887 86.954 21.887 86.026 C21.892 85.047 21.897 84.067 21.902 83.059 C21.904 82.061 21.905 81.064 21.907 80.036 C21.912 76.837 21.925 73.637 21.938 70.438 C21.943 68.274 21.947 66.111 21.951 63.947 C21.961 58.631 21.981 53.316 22 48 C14.74 48 7.48 48 0 48 C0 32.16 0 16.32 0 0 Z " fill="#AE825F" transform="translate(1196,868)"/>
<path d="M0 0 C7.59 0 15.18 0 23 0 C23 0.33 23 0.66 23 1 C15.74 1 8.48 1 1 1 C1.33 2.65 1.66 4.3 2 6 C2.079 7.35 2.118 8.703 2.114 10.056 C2.113 10.816 2.113 11.577 2.113 12.36 C2.108 13.166 2.103 13.971 2.098 14.801 C2.096 15.637 2.095 16.474 2.093 17.335 C2.088 19.994 2.075 22.653 2.062 25.312 C2.057 27.12 2.053 28.928 2.049 30.736 C2.039 35.158 2.019 39.579 2 44 C8.27 44 14.54 44 21 44 C21 37.07 21 30.14 21 23 C21.66 22.67 22.32 22.34 23 22 C23 29.92 23 37.84 23 46 C15.41 46 7.82 46 0 46 C0 30.82 0 15.64 0 0 Z " fill="#997054" transform="translate(1549,985)"/>
<path d="M0 0 C3.958 -0.087 7.916 -0.14 11.875 -0.188 C13.003 -0.213 14.131 -0.238 15.293 -0.264 C16.369 -0.273 17.446 -0.283 18.555 -0.293 C19.052 -0.301 19.052 -0.301 21.57 -0.341 C22.372 -0.228 23.174 -0.116 24 0 C26.089 3.133 26.249 3.851 26.23 7.414 C26.229 8.257 26.227 9.1 26.225 9.969 C26.218 10.407 26.218 10.407 26.188 12.625 C26.187 13.509 26.186 14.394 26.186 15.305 C26.14 21.86 26.14 21.86 25 23 C24.842 24.779 24.749 26.563 24.684 28.348 C24.642 29.427 24.6 30.507 24.557 31.619 C24.517 32.755 24.478 33.892 24.438 35.062 C24.394 36.203 24.351 37.343 24.307 38.518 C24.2 41.345 24.1 44.172 24 47 C31.26 47 38.52 47 46 47 C46 39.74 46 32.48 46 25 C46.33 25 46.66 25 47 25 C47 32.59 47 40.18 47 48 C39.08 48 31.16 48 23 48 C23 40.74 23 33.48 23 26 C15.41 26 7.82 26 0 26 C0 32.93 0 39.86 0 47 C-0.33 47 -0.66 47 -1 47 C-1 39.74 -1 32.48 -1 25 C6.92 25 14.84 25 23 25 C23 17.08 23 9.16 23 1 C15.41 1 7.82 1 0 1 C0 0.67 0 0.34 0 0 Z " fill="#34150F" transform="translate(1080,421)"/>
<path d="M0 0 C0.66 0 1.32 0 2 0 C2 6.93 2 13.86 2 21 C24.44 21 46.88 21 70 21 C70 21.66 70 22.32 70 23 C46.9 23 23.8 23 0 23 C0 15.41 0 7.82 0 0 Z " fill="#9C7457" transform="translate(1549,539)"/>
<path d="M0 0 C0.33 0 0.66 0 1 0 C1 7.59 1 15.18 1 23 C8.26 23 15.52 23 23 23 C23 15.41 23 7.82 23 0 C38.84 0 54.68 0 71 0 C71 0.33 71 0.66 71 1 C55.49 1 39.98 1 24 1 C24 8.59 24 16.18 24 24 C16.41 24 8.82 24 1 24 C1 31.59 1 39.18 1 47 C0.67 47 0.34 47 0 47 C0 39.41 0 31.82 0 24 C-7.59 24 -15.18 24 -23 24 C-21 22 -21 22 -18.845 21.865 C-17.976 21.917 -17.107 21.969 -16.211 22.023 C-15.363 22.069 -14.515 22.115 -13.642 22.162 C-12.564 22.232 -11.486 22.302 -10.375 22.375 C-6.951 22.581 -3.527 22.788 0 23 C0 15.41 0 7.82 0 0 Z " fill="#5E5053" transform="translate(1783,398)"/>
<path d="M0 0 C7.92 0 15.84 0 24 0 C24 7.92 24 15.84 24 24 C31.59 24 39.18 24 47 24 C47 24.33 47 24.66 47 25 C39.41 25 31.82 25 24 25 C24 32.59 24 40.18 24 48 C8.49 48 -7.02 48 -23 48 C-23 47.67 -23 47.34 -23 47 C-7.82 47 7.36 47 23 47 C23 39.74 23 32.48 23 25 C15.41 25 7.82 25 0 25 C0 24.67 0 24.34 0 24 C7.59 24 15.18 24 23 24 C23 16.41 23 8.82 23 1 C15.41 1 7.82 1 0 1 C0 0.67 0 0.34 0 0 Z " fill="#5C4F4A" transform="translate(1056,468)"/>
<path d="M0 0 C7.26 0 14.52 0 22 0 C22 0.33 22 0.66 22 1 C15.07 1 8.14 1 1 1 C1.33 16.51 1.66 32.02 2 48 C-0.453 49.226 -2.051 49.114 -4.789 49.098 C-5.637 49.095 -6.485 49.093 -7.358 49.09 C-8.436 49.081 -9.514 49.072 -10.625 49.062 C-14.049 49.042 -17.473 49.021 -21 49 C-21 55.93 -21 62.86 -21 70 C-21.66 70 -22.32 70 -23 70 C-23 62.41 -23 54.82 -23 47 C-15.41 47 -7.82 47 0 47 C0 31.49 0 15.98 0 0 Z " fill="#805F46" transform="translate(1619,867)"/>
<path d="M0 0 C22.44 0 44.88 0 68 0 C68 0.33 68 0.66 68 1 C46.55 1.33 25.1 1.66 3 2 C1.295 8.822 1.413 15.98 1 23 C20.8 23 40.6 23 61 23 C61 23.33 61 23.66 61 24 C40.87 24 20.74 24 0 24 C0 16.08 0 8.16 0 0 Z " fill="#201109" transform="translate(1197,562)"/>
<path d="M0 0 C0.33 0 0.66 0 1 0 C1 6.27 1 12.54 1 19 C8.59 19 16.18 19 24 19 C25.645 24.756 26.227 28.171 26.125 33.938 C26.116 34.621 26.107 35.305 26.098 36.01 C26.074 37.673 26.039 39.337 26 41 C26.594 40.988 27.189 40.977 27.801 40.965 C34.259 40.895 40.58 41.316 47 42 C47 42.66 47 43.32 47 44 C39.08 44 31.16 44 23 44 C23 36.08 23 28.16 23 20 C15.41 20 7.82 20 0 20 C0 13.4 0 6.8 0 0 Z " fill="#BB8D6C" transform="translate(1643,448)"/>
<path d="M0 0 C7.59 0 15.18 0 23 0 C23 7.59 23 15.18 23 23 C15.41 23 7.82 23 0 23 C0 15.41 0 7.82 0 0 Z M2 2 C1.979 4.949 1.959 7.899 1.938 10.938 C1.928 11.868 1.919 12.799 1.91 13.758 C1.907 14.486 1.905 15.214 1.902 15.965 C1.897 16.714 1.892 17.463 1.886 18.234 C2 20 2 20 3 21 C5.265 21.264 7.538 21.461 9.812 21.625 C11.056 21.72 12.3 21.816 13.582 21.914 C18.423 22.036 18.423 22.036 21 21 C22.653 17.694 22.101 14.005 22.062 10.375 C22.052 8.993 22.052 8.993 22 2 C15.4 2 8.8 2 2 2 Z " fill="#A27254" transform="translate(1713,422)"/>
<path d="M0 0 C7.92 0 15.84 0 24 0 C24 22.44 24 44.88 24 68 C23.67 68 23.34 68 23 68 C21.847 45.999 21.893 24.024 22 2 C19.271 1.973 16.542 1.953 13.812 1.938 C13.044 1.929 12.275 1.921 11.482 1.912 C7.515 1.895 3.874 2.014 0 3 C0 2.01 0 1.02 0 0 Z " fill="#946D4F" transform="translate(1408,563)"/>
<path d="M0 0 C7.92 0.33 15.84 0.66 24 1 C24 8.92 24 16.84 24 25 C31.59 25 39.18 25 47 25 C47 25.33 47 25.66 47 26 C39.41 26 31.82 26 24 26 C24 33.59 24 41.18 24 49 C23.67 49 23.34 49 23 49 C23 41.41 23 33.82 23 26 C15.41 26 7.82 26 0 26 C0 17.42 0 8.84 0 0 Z M1 2 C1 9.59 1 17.18 1 25 C8.26 25 15.52 25 23 25 C23 17.41 23 9.82 23 2 C15.74 2 8.48 2 1 2 Z " fill="#403F41" transform="translate(1619,1076)"/>
<path d="M0 0 C0.33 0 0.66 0 1 0 C1 7.59 1 15.18 1 23 C8.59 23 16.18 23 24 23 C24 23.33 24 23.66 24 24 C16.41 24 8.82 24 1 24 C1 31.26 1 38.52 1 46 C16.18 46 31.36 46 47 46 C47 46.33 47 46.66 47 47 C31.49 47 15.98 47 0 47 C0 39.41 0 31.82 0 24 C-7.59 24 -15.18 24 -23 24 C-23 23.67 -23 23.34 -23 23 C-15.41 23 -7.82 23 0 23 C0 15.41 0 7.82 0 0 Z " fill="#55453F" transform="translate(1736,469)"/>
<path d="M0 0 C0.99 0.33 1.98 0.66 3 1 C3.013 1.3 3.013 1.3 3.076 2.82 C3.192 5.526 3.314 8.232 3.438 10.938 C3.477 11.883 3.516 12.829 3.557 13.803 C3.599 14.702 3.64 15.601 3.684 16.527 C3.72 17.36 3.757 18.193 3.795 19.051 C4 21 4 21 5 22 C7.932 22.136 10.844 22.211 13.777 22.246 C15.588 22.279 17.398 22.312 19.209 22.346 C22.077 22.393 24.946 22.438 27.814 22.477 C30.573 22.516 33.331 22.568 36.09 22.621 C36.951 22.63 37.813 22.638 38.7 22.647 C44.773 22.773 44.773 22.773 47 25 C31.82 25 16.64 25 1 25 C0.67 16.75 0.34 8.5 0 0 Z " fill="#886650" transform="translate(1806,350)"/>
<path d="M0 0 C0.33 0 0.66 0 1 0 C1 7.59 1 15.18 1 23 C8.59 23 16.18 23 24 23 C24 23.33 24 23.66 24 24 C16.41 24 8.82 24 1 24 C1 31.26 1 38.52 1 46 C16.18 46 31.36 46 47 46 C47 46.33 47 46.66 47 47 C31.49 47 15.98 47 0 47 C0 39.41 0 31.82 0 24 C-7.26 24 -14.52 24 -22 24 C-22 23.67 -22 23.34 -22 23 C-14.74 23 -7.48 23 0 23 C0 15.41 0 7.82 0 0 Z " fill="#4D4E4E" transform="translate(1689,961)"/>
<path d="M0 0 C7.59 0 15.18 0 23 0 C23 7.59 23 15.18 23 23 C15.41 23 7.82 23 0 23 C0 15.41 0 7.82 0 0 Z M1 2 C1 8.27 1 14.54 1 21 C3.297 22.148 4.583 22.116 7.133 22.098 C7.496 22.096 7.496 22.096 9.333 22.09 C9.793 22.086 9.793 22.086 12.125 22.062 C13.589 22.052 13.589 22.052 21 22 C21 15.4 21 8.8 21 2 C14.4 2 7.8 2 1 2 Z " fill="#AF7859" transform="translate(1033,375)"/>
<path d="M0 0 C2.64 0 5.28 0 8 0 C8 0.33 8 0.66 8 1 C5.69 1 3.38 1 1 1 C1.003 1.346 1.003 1.346 1.016 3.095 C1.037 6.209 1.05 9.323 1.062 12.438 C1.071 13.526 1.079 14.615 1.088 15.736 C1.09 16.254 1.09 16.254 1.098 18.871 C1.1 19.35 1.1 19.35 1.114 21.775 C1 24 1 24 0 25 C-1.559 25.157 -3.125 25.251 -4.691 25.316 C-5.117 25.335 -5.117 25.335 -7.268 25.432 C-8.355 25.475 -9.442 25.518 -10.562 25.562 C-14.007 25.707 -17.451 25.851 -21 26 C-21.33 32.93 -21.66 39.86 -22 47 C-22.33 47.165 -22.33 47.165 -24 48 C-24 39.75 -24 31.5 -24 23 C-16.08 23 -8.16 23 0 23 C0 15.41 0 7.82 0 0 Z " fill="#987258" transform="translate(1479,1055)"/>
<path d="M0 0 C7.26 0 14.52 0 22 0 C22 0.33 22 0.66 22 1 C18.865 1.165 18.865 1.165 3 2 C2 6 2 6 2.5 9 C2.999 11.992 2.743 13.17 2 16 C1.903 18.823 1.859 21.615 1.875 24.438 C1.876 25.234 1.877 26.03 1.879 26.85 C1.917 32.765 2.27 38.61 2.879 44.496 C3 47 3 47 2 50 C1.652 51.664 1.316 53.33 1 55 C0.67 55 0.34 55 0 55 C0 36.85 0 18.7 0 0 Z " fill="#1A0602" transform="translate(1643,867)"/>
<path d="M0 0 C7.59 0 15.18 0 23 0 C23 0.33 23 0.66 23 1 C22.717 1.013 22.717 1.013 21.288 1.076 C18.733 1.192 16.179 1.315 13.625 1.438 C12.736 1.477 11.846 1.516 10.93 1.557 C10.079 1.599 9.228 1.64 8.352 1.684 C7.566 1.72 6.781 1.757 5.971 1.795 C4 2 4 2 2 3 C1.67 24.45 1.34 45.9 1 68 C8.26 68 15.52 68 23 68 C23 68.33 23 68.66 23 69 C15.41 69 7.82 69 0 69 C0 46.23 0 23.46 0 0 Z " fill="#C19674" transform="translate(1385,563)"/>
<path d="M0 0 C0.33 0 0.66 0 1 0 C3.211 22.754 3.211 22.754 3.004 34.16 C2.999 37.858 3.417 41.353 4 45 C5.32 45.33 6.64 45.66 8 46 C5.36 46 2.72 46 0 46 C0 30.82 0 15.64 0 0 Z " fill="#1D0503" transform="translate(1056,352)"/>
<path d="M0 0 C7.59 0 15.18 0 23 0 C23.049 7.511 23.086 15.023 23.11 22.534 C23.12 25.091 23.134 27.648 23.151 30.205 C23.175 33.874 23.186 37.542 23.195 41.211 C23.206 42.36 23.216 43.509 23.227 44.693 C23.227 45.754 23.227 46.815 23.227 47.908 C23.231 48.845 23.236 49.782 23.241 50.747 C23 53 23 53 21 55 C20.125 47.263 20.019 39.792 20.591 32.042 C21.282 22.037 21.06 12.023 21 2 C14.07 1.67 7.14 1.34 0 1 C0 0.67 0 0.34 0 0 Z " fill="#190602" transform="translate(1150,867)"/>
<path d="M0 0 C2 1 2 1 3 2 C3.101 4.373 3.13 6.75 3.125 9.125 C3.126 9.776 3.126 9.776 3.133 13.07 C2.79 23.21 2.79 23.21 1 25 C-0.708 25.087 -2.419 25.107 -4.129 25.098 C-4.646 25.096 -4.646 25.096 -7.264 25.088 C-8.352 25.08 -9.441 25.071 -10.562 25.062 C-11.109 25.06 -11.109 25.06 -13.873 25.049 C-16.582 25.037 -19.291 25.019 -22 25 C-22 31.93 -22 38.86 -22 46 C-22.33 46 -22.66 46 -23 46 C-23 38.74 -23 31.48 -23 24 C-15.41 24 -7.82 24 0 24 C0 16.08 0 8.16 0 0 Z " fill="#A17453" transform="translate(1596,938)"/>
<path d="M0 0 C0.66 0 1.32 0 2 0 C2 7.26 2 14.52 2 22 C3.98 21.67 5.96 21.34 8 21 C12.33 20.601 16.662 20.31 21 20 C21.33 13.4 21.66 6.8 22 0 C22.33 0 22.66 0 23 0 C23 7.59 23 15.18 23 23 C15.41 23 7.82 23 0 23 C0 15.41 0 7.82 0 0 Z " fill="#AB7758" transform="translate(1760,375)"/>
<path d="M0 0 C0.33 0 0.66 0 1 0 C1 7.59 1 15.18 1 23 C8.59 23 16.18 23 24 23 C24 23.33 24 23.66 24 24 C16.41 24 8.82 24 1 24 C1 31.59 1 39.18 1 47 C0.67 47 0.34 47 0 47 C0 39.41 0 31.82 0 24 C-7.59 24 -15.18 24 -23 24 C-23 23.67 -23 23.34 -23 23 C-15.41 23 -7.82 23 0 23 C0 15.41 0 7.82 0 0 Z " fill="#4B4A4B" transform="translate(1126,961)"/>
<path d="M0 0 C0.66 0 1.32 0 2 0 C2 6.93 2 13.86 2 21 C9.26 21 16.52 21 24 21 C24 21.66 24 22.32 24 23 C16.08 23 8.16 23 0 23 C0 15.41 0 7.82 0 0 Z " fill="#B88B68" transform="translate(1314,1078)"/>
<path d="M0 0 C0.33 0 0.66 0 1 0 C1 13.53 1 27.06 1 41 C7.93 41 14.86 41 22 41 C22.33 41.66 22.66 42.32 23 43 C15.08 43 7.16 43 -1 43 C-0.67 28.81 -0.34 14.62 0 0 Z " fill="#C0916C" transform="translate(1198,941)"/>
<path d="M0 0 C7.92 0 15.84 0 24 0 C24 0.66 24 1.32 24 2 C16.74 2 9.48 2 2 2 C2 14.54 2 27.08 2 40 C1.67 40 1.34 40 1 40 C0.67 26.8 0.34 13.6 0 0 Z " fill="#B88E6B" transform="translate(1384,914)"/>
<path d="M0 0 C0.33 0 0.66 0 1 0 C1 7.59 1 15.18 1 23 C-6.26 23 -13.52 23 -21 23 C-21 22.34 -21 21.68 -21 21 C-14.73 20.67 -8.46 20.34 -2 20 C-1.562 10.563 -1.562 10.563 -1.432 7.584 C-1.394 6.815 -1.356 6.046 -1.316 5.254 C-1.28 4.463 -1.243 3.672 -1.205 2.858 C-1 1 -1 1 0 0 Z " fill="#C4936E" transform="translate(1148,469)"/>
<path d="M0 0 C0.33 0 0.66 0 1 0 C1 14.85 1 29.7 1 45 C0.01 45 -0.98 45 -2 45 C-1.881 39.556 -1.757 34.111 -1.628 28.667 C-1.584 26.816 -1.543 24.966 -1.503 23.115 C-1.445 20.449 -1.381 17.783 -1.316 15.117 C-1.3 14.295 -1.283 13.473 -1.266 12.626 C-1.156 8.325 -0.837 4.236 0 0 Z " fill="#1B0402" transform="translate(1759,353)"/>
<path d="M0 0 C7.59 0 15.18 0 23 0 C22.67 0.99 22.34 1.98 22 3 C21.394 2.988 20.788 2.977 20.164 2.965 C14.029 2.899 8.096 3.303 2 4 C1.67 9.61 1.34 15.22 1 21 C0.67 21 0.34 21 0 21 C0 14.07 0 7.14 0 0 Z " fill="#170501" transform="translate(1080,539)"/>
<path d="M0 0 C7.59 0 15.18 0 23 0 C23 3.63 23 7.26 23 11 C22.67 11 22.34 11 22 11 C22 7.7 22 4.4 22 1 C14.822 1.454 8.697 2.371 2 5 C2.041 6.093 2.082 7.186 2.125 8.312 C2 12 2 12 0 15 C0 10.05 0 5.1 0 0 Z " fill="#160703" transform="translate(1174,586)"/>
<path d="M0 0 C14.85 0 29.7 0 45 0 C45 0.33 45 0.66 45 1 C31.003 2.184 17.037 2.104 3 2 C2.136 4.593 1.824 6.34 1.684 9.012 C1.642 9.769 1.6 10.526 1.557 11.307 C1.517 12.092 1.478 12.878 1.438 13.688 C1.394 14.485 1.351 15.282 1.307 16.104 C1.201 18.069 1.1 20.034 1 22 C0.67 22 0.34 22 0 22 C0 14.74 0 7.48 0 0 Z " fill="#180404" transform="translate(1807,375)"/>
<path d="M0 0 C2 2 2 2 2.227 4.247 C2.217 5.158 2.206 6.069 2.195 7.008 C2.189 7.994 2.182 8.98 2.176 9.996 C2.159 11.029 2.142 12.061 2.125 13.125 C2.116 14.165 2.107 15.206 2.098 16.277 C2.074 18.852 2.041 21.426 2 24 C-0.599 25.299 -2.327 25.022 -5.227 24.879 C-6.258 24.831 -7.289 24.782 -8.352 24.732 C-8.892 24.704 -8.892 24.704 -11.625 24.562 C-12.713 24.51 -13.801 24.458 -14.922 24.404 C-17.615 24.274 -20.307 24.139 -23 24 C-23 23.67 -23 23.34 -23 23 C-15.41 23 -7.82 23 0 23 C0 15.41 0 7.82 0 0 Z " fill="#966D54" transform="translate(1150,422)"/>
<path d="M0 0 C7.26 0 14.52 0 22 0 C22 7.59 22 15.18 22 23 C17.05 23 12.1 23 7 23 C10.744 21.128 11.84 20.76 15.75 20.875 C16.549 20.893 17.348 20.911 18.172 20.93 C18.775 20.953 19.378 20.976 20 21 C20.027 19.146 20.047 17.292 20.062 15.438 C20.074 14.405 20.086 13.372 20.098 12.309 C20 9 20 9 19 2 C12.73 1.67 6.46 1.34 0 1 C0 0.67 0 0.34 0 0 Z " fill="#54242D" transform="translate(1785,375)"/>
<path d="M0 0 C0.66 0 1.32 0 2 0 C2.33 6.93 2.66 13.86 3 21 C9.6 21.33 16.2 21.66 23 22 C23 22.33 23 22.66 23 23 C15.41 23 7.82 23 0 23 C0 15.41 0 7.82 0 0 Z " fill="#A37757" transform="translate(1713,515)"/>
<path d="M0 0 C0.33 0.165 0.33 0.165 2 1 C2.33 7.6 2.66 14.2 3 21 C9.6 21.33 16.2 21.66 23 22 C23 22.33 23 22.66 23 23 C15.41 23 7.82 23 0 23 C0 15.41 0 7.82 0 0 Z " fill="#9A7255" transform="translate(1690,492)"/>
<path d="M0 0 C0.33 0 0.66 0 1 0 C1 7.59 1 15.18 1 23 C-6.92 23.33 -14.84 23.66 -23 24 C-23 23.34 -23 22.68 -23 22 C-16.271 20.545 -8.667 20.028 -2 22 C-1.092 19.275 -0.816 17.378 -0.684 14.551 C-0.642 13.703 -0.6 12.856 -0.557 11.982 C-0.517 11.101 -0.478 10.22 -0.438 9.312 C-0.394 8.42 -0.351 7.527 -0.307 6.607 C-0.201 4.405 -0.099 2.203 0 0 Z " fill="#150300" transform="translate(1149,422)"/>
<path d="M0 0 C0.33 0 0.66 0 1 0 C1 14.52 1 29.04 1 44 C2.98 44 4.96 44 7 44 C6.67 44.66 6.34 45.32 6 46 C5.01 46.165 5.01 46.165 0 47 C0 31.49 0 15.98 0 0 Z " fill="#111211" transform="translate(1009,1078)"/>
<path d="M0 0 C2.527 3.791 1.984 6.43 1.562 10.75 C1.061 16.075 1.19 20.671 2 26 C1.062 28.438 1.062 28.438 0 30 C-1.073 26.782 -1.129 24.437 -1.133 21.055 C-1.134 19.896 -1.135 18.737 -1.137 17.543 C-1.133 16.333 -1.129 15.122 -1.125 13.875 C-1.129 12.657 -1.133 11.439 -1.137 10.184 C-1.135 9.027 -1.134 7.871 -1.133 6.68 C-1.132 5.615 -1.131 4.55 -1.129 3.453 C-1 1 -1 1 0 0 Z " fill="#0A090B" transform="translate(940,335)"/>
<path d="M0 0 C7.59 0 15.18 0 23 0 C21 2 21 2 19.121 2.227 C18.377 2.217 17.633 2.206 16.867 2.195 C16.464 2.192 16.464 2.192 14.426 2.176 C13.584 2.159 12.742 2.142 11.875 2.125 C11.45 2.12 11.45 2.12 9.301 2.098 C7.2 2.074 5.1 2.038 3 2 C1.853 4.293 1.803 5.799 1.684 8.352 C1.642 9.202 1.6 10.053 1.557 10.93 C1.517 11.819 1.478 12.709 1.438 13.625 C1.394 14.522 1.351 15.419 1.307 16.344 C1.2 18.562 1.098 20.781 1 23 C0.67 23 0.34 23 0 23 C0 15.41 0 7.82 0 0 Z " fill="#180401" transform="translate(1150,469)"/>
<path d="M0 0 C7.59 0 15.18 0 23 0 C23 3.3 23 6.6 23 10 C22.34 10.66 21.68 11.32 21 12 C21 8.7 21 5.4 21 2 C19.987 2.012 18.974 2.023 17.93 2.035 C16.578 2.045 15.227 2.054 13.875 2.062 C13.542 2.067 13.542 2.067 11.859 2.088 C7.793 2.108 3.988 1.789 0 1 C0 0.67 0 0.34 0 0 Z " fill="#5E5F5F" transform="translate(1502,727)"/>
<path d="M0 0 C7.59 0 15.18 0 23 0 C19.619 3.381 19.619 3.381 15.84 3.398 C15.046 3.402 14.253 3.406 13.436 3.41 C13.023 3.404 13.023 3.404 10.938 3.375 C10.523 3.381 10.523 3.381 8.428 3.41 C7.636 3.406 6.843 3.402 6.027 3.398 C5.665 3.397 5.665 3.397 3.832 3.388 C2 3 2 3 0 0 Z " fill="#1C0903" transform="translate(1713,539)"/>
<path d="M0 0 C7.59 0 15.18 0 23 0 C23 7.92 23 15.84 23 24 C21.68 23.67 20.36 23.34 19 23 C19.66 22.67 20.32 22.34 21 22 C21.33 15.73 21.66 9.46 22 3 C19.275 2.092 17.378 1.816 14.551 1.684 C13.703 1.642 12.856 1.6 11.982 1.557 C11.101 1.517 10.22 1.478 9.312 1.438 C8.42 1.394 7.527 1.351 6.607 1.307 C4.405 1.201 2.203 1.099 0 1 C0 0.67 0 0.34 0 0 Z " fill="#1A0304" transform="translate(1080,468)"/>
<path d="M0 0 C5.94 0 11.88 0 18 0 C18 0.99 18 1.98 18 3 C12.06 3 6.12 3 0 3 C0 2.01 0 1.02 0 0 Z " fill="#0F100F" transform="translate(1784,1122)"/>
<path d="M0 0 C7.59 0 15.18 0 23 0 C23 0.33 23 0.66 23 1 C16.4 1.33 9.8 1.66 3 2 C1.826 4.349 1.885 5.738 1.902 8.352 C1.906 9.202 1.909 10.053 1.912 10.93 C1.92 11.819 1.929 12.709 1.938 13.625 C1.942 14.522 1.947 15.419 1.951 16.344 C1.963 18.563 1.979 20.781 2 23 C1.34 23 0.68 23 0 23 C0 15.41 0 7.82 0 0 Z " fill="#140003" transform="translate(1760,422)"/>
<path d="M0 0 C0.697 0.014 1.395 0.027 2.113 0.041 C3.826 0.076 5.538 0.13 7.25 0.188 C7.58 1.178 7.91 2.168 8.25 3.188 C1.65 3.188 -4.95 3.188 -11.75 3.188 C-7.364 -0.102 -5.154 -0.19 0 0 Z " fill="#09090B" transform="translate(1023.75,1121.8125)"/>
<path d="M0 0 C7.26 0 14.52 0 22 0 C22 0.33 22 0.66 22 1 C21.715 1.013 21.715 1.013 20.272 1.076 C17.702 1.192 15.132 1.314 12.562 1.438 C11.665 1.477 10.767 1.516 9.842 1.557 C8.988 1.599 8.134 1.64 7.254 1.684 C6.859 1.702 6.859 1.702 4.858 1.795 C3 2 3 2 2 3 C2 5.1 2.004 7.201 2.031 9.301 C1.978 13.89 1.477 18.438 1 23 C0.67 23 0.34 23 0 23 C0 15.41 0 7.82 0 0 Z " fill="#220709" transform="translate(1784,398)"/>
<path d="M0 0 C7.59 0 15.18 0 23 0 C22.67 0.99 22.34 1.98 22 3 C14.74 2.67 7.48 2.34 0 2 C0 1.34 0 0.68 0 0 Z " fill="#CCA086" transform="translate(1807,305)"/>
<path d="M0 0 C0.66 0 1.32 0 2 0 C2 7.26 2 14.52 2 22 C1.01 22 0.02 22 -1 22 C-0.67 14.74 -0.34 7.48 0 0 Z " fill="#0D090A" transform="translate(1030,282)"/>
<path d="M0 0 C7.59 0 15.18 0 23 0 C23 0.33 23 0.66 23 1 C16.4 1.66 9.8 2.32 3 3 C2.34 5.31 1.68 7.62 1 10 C0.67 10 0.34 10 0 10 C0 6.7 0 3.4 0 0 Z " fill="#A57A5C" transform="translate(1057,516)"/>
<path d="M0 0 C3.039 -0.293 3.039 -0.293 6.625 -0.188 C7.814 -0.16 9.002 -0.133 10.227 -0.105 C11.142 -0.071 12.057 -0.036 13 0 C13 0.66 13 1.32 13 2 C14.65 2 16.3 2 18 2 C18 2.33 18 2.66 18 3 C11.4 3 4.8 3 -2 3 C-1.34 2.01 -0.68 1.02 0 0 Z " fill="#111112" transform="translate(1551,1075)"/>
<path d="M0 0 C6.27 0.33 12.54 0.66 19 1 C18.67 1.66 18.34 2.32 18 3 C12.06 3 6.12 3 0 3 C0 2.01 0 1.02 0 0 Z " fill="#0D0C0E" transform="translate(1245,1074)"/>
<path d="M0 0 C3.3 0 6.6 0 10 0 C10 0.33 10 0.66 10 1 C9.433 1.072 9.433 1.072 6.562 1.438 C3 2 3 2 2 3 C1.843 4.486 1.749 5.979 1.684 7.473 C1.642 8.372 1.6 9.271 1.557 10.197 C1.517 11.143 1.478 12.088 1.438 13.062 C1.394 14.012 1.351 14.961 1.307 15.939 C1.2 18.293 1.098 20.646 1 23 C0.67 23 0.34 23 0 23 C0 15.41 0 7.82 0 0 Z " fill="#140100" transform="translate(1713,469)"/>
<path d="M0 0 C1.98 0 3.96 0 6 0 C5.355 0.633 4.711 1.266 4.047 1.918 C1.285 6.076 1.335 9.425 1.25 14.312 C1.22 15.148 1.191 15.984 1.16 16.846 C1.09 18.897 1.043 20.948 1 23 C0.67 23 0.34 23 0 23 C0 15.41 0 7.82 0 0 Z " fill="#471B22" transform="translate(1760,352)"/>
<path d="M0 0 C1.65 0 3.3 0 5 0 C4.547 1.439 4.088 2.876 3.625 4.312 C3.37 5.113 3.115 5.914 2.852 6.738 C2 9 2 9 0 12 C0 8.04 0 4.08 0 0 Z " fill="#130403" transform="translate(1104,516)"/>
<path d="M0 0 C0.33 0 0.66 0 1 0 C1 3.63 1 7.26 1 11 C0.01 10.67 -0.98 10.34 -2 10 C-1.34 6.7 -0.68 3.4 0 0 Z " fill="#120301" transform="translate(1477,1067)"/>
<path d="M0 0 C1.65 0 3.3 0 5 0 C4.67 0.495 4.67 0.495 3 3 C2.61 4.99 2.268 6.99 2 9 C1.67 9 1.34 9 1 9 C0.67 6.03 0.34 3.06 0 0 Z " fill="#504B48" transform="translate(1432,914)"/>
</svg>
